<svg xmlns="http://www.w3.org/2000/svg" xmlns:xlink="http://www.w3.org/1999/xlink" version="1.1" x="0px" y="0px" viewBox="0 0 95 95" enable-background="new 0 0 95 95" xml:space="preserve"><g><rect x="35.756" y="18.129" transform="matrix(0.3828 0.9238 -0.9238 0.3828 39.5166 -22.7863)" fill="none" width="2.112" height="0.103"/><rect x="24.582" y="25.595" transform="matrix(0.7071 0.7071 -0.7071 0.7071 25.6446 -10.6175)" fill="none" width="2.113" height="0.103"/><rect x="40.022" y="16.681" transform="matrix(0.2589 0.9659 -0.9659 0.2589 46.607 -27.2761)" fill="none" width="2.112" height="0.104"/><rect x="27.97" y="22.625" transform="matrix(0.6084 0.7936 -0.7936 0.6084 29.364 -14.1554)" fill="none" width="2.111" height="0.103"/><rect x="31.719" y="20.124" transform="matrix(0.4998 0.8661 -0.8661 0.4998 33.8665 -18.2939)" fill="none" width="2.108" height="0.103"/><rect x="33.784" y="21.802" transform="matrix(-0.8664 0.4994 -0.4994 -0.8664 75.4516 25.484)" fill="none" width="1.066" height="2.068"/><rect x="44.44" y="15.802" transform="matrix(0.1308 0.9914 -0.9914 0.1308 55.2639 -31.325)" fill="none" width="2.112" height="0.103"/><rect x="54.436" y="14.798" transform="matrix(0.9914 0.1309 -0.1309 0.9914 2.545 -6.998)" fill="none" width="0.103" height="2.112"/><rect x="58.854" y="15.677" transform="matrix(0.965 0.2623 -0.2623 0.965 6.4523 -14.8663)" fill="none" width="0.103" height="2.112"/><rect x="49.467" y="17.604" fill="none" width="1.065" height="2.063"/><rect x="49.94" y="14.504" fill="none" width="0.103" height="2.111"/><rect x="18.121" y="62.124" transform="matrix(-0.3826 -0.9239 0.9239 -0.3826 -33.2462 104.1436)" fill="none" width="0.103" height="2.112"/><rect x="16.673" y="57.857" transform="matrix(-0.2513 -0.9679 0.9679 -0.2513 -36.0953 89.9063)" fill="none" width="0.104" height="2.113"/><rect x="21.612" y="28.983" transform="matrix(0.7932 0.609 -0.609 0.7932 22.3684 -7.7996)" fill="none" width="2.113" height="0.103"/><rect x="14.504" y="49.948" fill="none" width="2.104" height="0.103"/><rect x="63.12" y="17.125" transform="matrix(0.9239 0.3826 -0.3826 0.9239 11.7638 -22.7876)" fill="none" width="0.103" height="2.111"/><rect x="22.301" y="64.649" transform="matrix(-0.5005 -0.8657 0.8657 -0.5005 -22.6021 118.3274)" fill="none" width="1.066" height="2.069"/><rect x="20.117" y="66.166" transform="matrix(-0.4994 -0.8664 0.8664 -0.4994 -27.9948 118.2615)" fill="none" width="0.103" height="2.104"/><rect x="15.794" y="53.439" transform="matrix(-0.1309 -0.9914 0.9914 -0.1309 -36.1052 77.3398)" fill="none" width="0.103" height="2.111"/><rect x="21.799" y="33.783" transform="matrix(0.866 0.5 -0.5 0.866 20.2157 -6.8195)" fill="none" width="2.07" height="1.066"/><rect x="17.596" y="49.467" fill="none" width="2.071" height="1.065"/><rect x="19.116" y="32.729" transform="matrix(0.866 0.5 -0.5 0.866 19.0932 -5.6923)" fill="none" width="2.104" height="0.104"/><rect x="17.117" y="36.769" transform="matrix(0.9238 0.3828 -0.3828 0.9238 15.4788 -4.1519)" fill="none" width="2.112" height="0.103"/><rect x="15.669" y="41.034" transform="matrix(0.9659 0.2587 -0.2587 0.9659 11.2003 -2.9284)" fill="none" width="2.113" height="0.103"/><polygon fill="none" points="69.7,50.024 57.38,48.069 58.051,51.873  "/><polygon fill="none" points="50.253,30.577 49.011,38.403 51.963,41.351  "/><polygon fill="none" points="62.233,38.044 54.369,43.753 56.525,45.906  "/><rect x="76.625" y="33.292" transform="matrix(0.4995 0.8663 -0.8663 0.4995 68.353 -49.6667)" fill="none" width="1.066" height="2.056"/><polygon fill="none" points="38.272,38.043 40.778,41.495 40.447,39.622  "/><polygon fill="none" points="38.272,62.005 45.712,56.604 43.672,54.567  "/><polygon fill="none" points="30.806,50.024 42.611,51.898 41.969,48.252  "/><rect x="79.766" y="31.724" transform="matrix(0.4911 0.8711 -0.8711 0.4911 69.1701 -52.8471)" fill="none" width="0.104" height="2.113"/><rect x="84.085" y="44.449" transform="matrix(0.1297 0.9915 -0.9915 0.1297 118.3417 -43.8252)" fill="none" width="0.104" height="2.112"/><polygon fill="none" points="50.253,69.471 51.395,62.278 48.681,59.568  "/><rect x="83.207" y="40.03" transform="matrix(0.2623 0.965 -0.965 0.2623 101.0647 -50.0346)" fill="none" width="0.103" height="2.112"/><rect x="81.758" y="35.764" transform="matrix(0.3826 0.9239 -0.9239 0.3826 84.5258 -52.8528)" fill="none" width="0.103" height="2.112"/><path fill="none" d="M50,24.949c-13.813,0-25.052,11.237-25.052,25.051S36.187,75.051,50,75.051S75.051,63.813,75.051,50   S63.813,24.949,50,24.949z M73.349,50.024c0,0.243-0.177,0.45-0.417,0.489l-14.709,2.335l0.454,2.576l6.187,8.521   c0.143,0.197,0.122,0.468-0.05,0.64c-0.096,0.096-0.222,0.145-0.35,0.145c-0.101,0-0.204-0.031-0.291-0.095l-4.441-3.224   l1.694,9.612c0.038,0.212-0.067,0.425-0.258,0.524c-0.072,0.038-0.151,0.056-0.229,0.056c-0.064,0-0.128-0.012-0.187-0.037   c-0.06-0.024-0.115-0.061-0.162-0.108l-8.33-8.317l-1.518,9.561c-0.039,0.24-0.245,0.417-0.489,0.417s-0.45-0.177-0.489-0.417   L47.491,58.38l-1.07-1.068l-10.088,7.324c-0.087,0.064-0.189,0.095-0.291,0.095c-0.127,0-0.254-0.049-0.35-0.145   c-0.172-0.172-0.193-0.443-0.05-0.64l7.338-10.108c-0.001-0.003-0.002-0.006-0.003-0.009c-0.013-0.026-0.021-0.052-0.029-0.079   c-0.006-0.018-0.016-0.034-0.02-0.053l-0.135-0.766l-15.219-2.416c-0.24-0.039-0.417-0.245-0.417-0.489s0.177-0.45,0.417-0.489   l14.223-2.258l-0.628-3.56l-5.527-7.614c-0.143-0.197-0.122-0.468,0.05-0.64c0.172-0.171,0.444-0.194,0.64-0.05l3.868,2.808   l-1.465-8.309c0,0,0,0,0-0.001l-0.106-0.604c-0.038-0.212,0.067-0.425,0.258-0.524c0.19-0.099,0.424-0.066,0.579,0.089l8.68,8.667   l1.618-10.194c0.039-0.24,0.245-0.417,0.489-0.417s0.45,0.177,0.489,0.417l2.412,15.194l0.507,0.506l10.512-7.633   c0.197-0.144,0.468-0.121,0.64,0.05c0.172,0.172,0.193,0.443,0.05,0.64l-7.718,10.631l0.053,0.303l15.733,2.498   C73.172,49.574,73.349,49.781,73.349,50.024z"/><rect x="77.263" y="27.978" transform="matrix(0.6075 0.7944 -0.7944 0.6075 53.413 -50.0183)" fill="none" width="0.103" height="2.112"/><polygon fill="none" points="62.233,62.005 59.068,57.646 59.485,60.01  "/><path fill="#6CCBF1" d="M50,22.77c-15.015,0-27.231,12.215-27.231,27.23S34.985,77.23,50,77.23S77.23,65.015,77.23,50   S65.015,22.77,50,22.77z M50,76.04c-14.359,0-26.041-11.682-26.041-26.04S35.641,23.96,50,23.96c14.358,0,26.04,11.682,26.04,26.04   S64.358,76.04,50,76.04z"/><rect x="67.16" y="19.118" transform="matrix(0.8688 0.4951 -0.4951 0.8688 18.8055 -30.6325)" fill="none" width="0.103" height="2.111"/><rect x="70.906" y="21.621" transform="matrix(0.7944 0.6075 -0.6075 0.7944 28.3668 -38.4399)" fill="none" width="0.103" height="2.112"/><rect x="74.293" y="24.591" transform="matrix(0.7071 0.7071 -0.7071 0.7071 39.9103 -45.0578)" fill="none" width="0.104" height="2.112"/><path fill="none" d="M51.619,45.017c-0.511-0.16-1.039-0.242-1.569-0.242c-2.29,0-4.291,1.469-4.98,3.656   c-0.419,1.33-0.295,2.744,0.351,3.981c0.644,1.237,1.732,2.15,3.063,2.569c0.511,0.16,1.039,0.242,1.569,0.242   c2.29,0,4.291-1.469,4.98-3.656c0.418-1.33,0.295-2.744-0.351-3.981C54.037,46.349,52.95,45.436,51.619,45.017z M52.408,50.742   c-0.326,1.034-1.273,1.73-2.357,1.73c0,0,0,0-0.001,0c-0.25,0-0.5-0.039-0.742-0.115c-1.3-0.41-2.024-1.8-1.615-3.1   c0.401-1.275,1.82-2.019,3.099-1.614c0.63,0.197,1.145,0.629,1.45,1.215C52.548,49.443,52.607,50.112,52.408,50.742z"/><path fill="#F79E5A" d="M50.496,48.585c-0.147-0.045-0.297-0.069-0.447-0.069c-0.649,0-1.217,0.416-1.413,1.037   c-0.245,0.779,0.189,1.614,0.97,1.86c0.775,0.244,1.619-0.206,1.859-0.97c0.119-0.378,0.084-0.778-0.099-1.13   C51.183,48.963,50.874,48.704,50.496,48.585z"/><rect x="65.148" y="21.811" transform="matrix(0.8664 0.4994 -0.4994 0.8664 20.1851 -29.7509)" fill="none" width="1.066" height="2.058"/><rect x="22.616" y="69.909" transform="matrix(-0.6075 -0.7944 0.7944 -0.6075 -19.9343 132.0796)" fill="none" width="0.103" height="2.112"/><path fill="#F79E5A" d="M57.724,55.714l-0.564-3.198c0,0,0-0.001,0-0.001c0,0,0-0.001,0-0.001l-0.866-4.912   c-0.004-0.014-0.005-0.027-0.007-0.041l-0.106-0.6L39.875,30.679l1.511,8.575c0.001,0.006,0.002,0.012,0.003,0.018l2.309,13.103   c0.001,0.002,0.001,0.004,0.001,0.006l0.175,0.991L60.18,69.653l-1.635-9.279c0-0.003-0.001-0.005-0.001-0.008l-0.816-4.63   C57.726,55.728,57.725,55.721,57.724,55.714z M55.975,51.865c-0.819,2.6-3.199,4.347-5.922,4.347c-0.001,0,0,0-0.001,0   c-0.631,0-1.259-0.098-1.867-0.289c-1.582-0.498-2.876-1.583-3.643-3.054c-0.766-1.472-0.914-3.153-0.415-4.736   c0.819-2.6,3.199-4.347,5.922-4.347c0.631,0,1.259,0.098,1.867,0.289C55.183,45.103,57.004,48.598,55.975,51.865z"/><rect x="14.79" y="45.452" transform="matrix(0.9914 0.1308 -0.1308 0.9914 6.0903 -1.6821)" fill="none" width="2.111" height="0.104"/><rect x="65.148" y="76.131" transform="matrix(0.8664 -0.4994 0.4994 0.8664 -29.7554 43.1072)" fill="none" width="1.066" height="2.059"/><rect x="66.155" y="79.774" transform="matrix(-0.5002 -0.8659 0.8659 -0.5002 31.7055 177.9527)" fill="none" width="2.113" height="0.104"/><rect x="62.116" y="81.767" transform="matrix(-0.3824 -0.924 0.924 -0.3824 11.7285 171.4769)" fill="none" width="2.111" height="0.103"/><rect x="69.902" y="77.272" transform="matrix(-0.6087 -0.7934 0.7934 -0.6087 52.7973 180.6872)" fill="none" width="2.112" height="0.103"/><rect x="73.289" y="74.301" transform="matrix(-0.7071 -0.7071 0.7071 -0.7071 74.3389 179.4981)" fill="none" width="2.112" height="0.103"/><rect x="57.849" y="83.215" transform="matrix(-0.2587 -0.9659 0.9659 -0.2587 -6.2842 161.7108)" fill="none" width="2.113" height="0.103"/><rect x="76.259" y="70.915" transform="matrix(-0.7936 -0.6084 0.6084 -0.7936 95.5002 174.3251)" fill="none" width="2.111" height="0.103"/><rect x="49.467" y="80.333" fill="none" width="1.065" height="2.062"/><rect x="49.94" y="83.384" fill="none" width="0.103" height="2.112"/><rect x="53.432" y="84.094" transform="matrix(-0.1308 -0.9914 0.9914 -0.1308 -21.8054 149.1743)" fill="none" width="2.111" height="0.103"/><rect x="80.754" y="63.128" transform="matrix(-0.9238 -0.3828 0.3828 -0.9238 133.2041 152.8639)" fill="none" width="2.112" height="0.103"/><rect x="80.333" y="49.467" fill="none" width="2.054" height="1.065"/><path fill="none" d="M50,12.915c-20.449,0-37.085,16.636-37.085,37.085S29.551,87.084,50,87.084S87.084,70.449,87.084,50   S70.449,12.915,50,12.915z M85.905,44.368c0.104,0.08,0.172,0.198,0.189,0.327l0.142,1.084c0.035,0.271-0.155,0.52-0.426,0.555   l-3.074,0.405c-0.021,0.003-0.043,0.004-0.065,0.004c-0.108,0-0.214-0.036-0.301-0.102c-0.104-0.08-0.172-0.198-0.189-0.327   l-0.142-1.084c-0.035-0.271,0.156-0.52,0.426-0.555l3.074-0.405C85.668,44.251,85.8,44.288,85.905,44.368z M85.093,40.029   l0.283,1.055c0.034,0.127,0.015,0.262-0.05,0.376c-0.065,0.114-0.173,0.196-0.299,0.231l-2.995,0.803   c-0.043,0.011-0.086,0.016-0.128,0.016c-0.218,0-0.418-0.146-0.478-0.366l-0.283-1.055c-0.034-0.127-0.015-0.262,0.05-0.376   c0.065-0.114,0.173-0.196,0.299-0.231l2.995-0.803C84.753,39.615,85.021,39.765,85.093,40.029z M83.223,35.265   c0.121,0.05,0.217,0.147,0.268,0.268l0.418,1.009c0.05,0.121,0.05,0.257,0,0.379c-0.05,0.121-0.147,0.217-0.268,0.268l-2.865,1.187   c-0.061,0.025-0.125,0.038-0.189,0.038c-0.065,0-0.128-0.013-0.189-0.038c-0.121-0.05-0.217-0.147-0.268-0.268l-0.418-1.009   c-0.104-0.252,0.015-0.542,0.268-0.646l2.865-1.187C82.966,35.215,83.101,35.215,83.223,35.265z M80.784,30.637   c0.127,0.035,0.235,0.117,0.299,0.231l1.027,1.779c0.137,0.237,0.056,0.539-0.181,0.675l-5.328,3.076   c-0.076,0.044-0.161,0.067-0.247,0.067c-0.042,0-0.086-0.006-0.128-0.016c-0.127-0.035-0.235-0.117-0.299-0.231l-1.027-1.779   c-0.137-0.237-0.056-0.539,0.181-0.675l5.328-3.076C80.522,30.621,80.656,30.606,80.784,30.637z M78.219,50   c0,15.56-12.659,28.219-28.219,28.219C34.439,78.219,21.78,65.56,21.78,50S34.439,21.781,50,21.781   C65.56,21.781,78.219,34.44,78.219,50z M78.278,27.166c0.13,0.017,0.248,0.086,0.327,0.19l0.664,0.867   c0.166,0.216,0.126,0.526-0.091,0.693l-2.46,1.887c-0.09,0.07-0.196,0.102-0.301,0.102c-0.148,0-0.295-0.067-0.392-0.193   l-0.665-0.866c-0.08-0.104-0.115-0.236-0.099-0.366c0.017-0.129,0.086-0.248,0.189-0.327l2.461-1.888   C78.016,27.184,78.148,27.147,78.278,27.166z M75.404,23.814l0.773,0.773c0.193,0.193,0.193,0.506,0,0.699l-2.192,2.192   c-0.097,0.097-0.223,0.145-0.35,0.145c-0.127,0-0.253-0.048-0.35-0.145l-0.773-0.772c-0.093-0.093-0.145-0.218-0.145-0.35   s0.052-0.257,0.145-0.35l2.192-2.193C74.89,23.629,75.219,23.629,75.404,23.814z M71.404,20.623   c0.134-0.018,0.262,0.018,0.366,0.099l0.866,0.665c0.216,0.166,0.257,0.476,0.091,0.693l-1.888,2.46   c-0.08,0.103-0.198,0.172-0.327,0.189c-0.022,0.003-0.043,0.004-0.065,0.004c-0.108,0-0.214-0.036-0.301-0.102l-0.866-0.665   c-0.216-0.166-0.257-0.476-0.091-0.693l1.888-2.46C71.157,20.709,71.274,20.641,71.404,20.623z M67.353,17.89l1.779,1.027   c0.114,0.065,0.196,0.173,0.231,0.299c0.034,0.127,0.015,0.262-0.05,0.376l-3.076,5.328c-0.065,0.114-0.173,0.196-0.3,0.231   c-0.042,0.011-0.085,0.016-0.127,0.016c-0.086,0-0.172-0.022-0.247-0.067l-1.779-1.028c-0.237-0.136-0.318-0.438-0.181-0.675   l3.076-5.328C66.814,17.835,67.117,17.753,67.353,17.89z M61.617,19.215l1.186-2.865c0.05-0.121,0.147-0.217,0.268-0.268   c0.122-0.05,0.257-0.05,0.379,0l1.009,0.418c0.121,0.05,0.217,0.147,0.268,0.268c0.05,0.122,0.05,0.258,0,0.379l-1.187,2.865   c-0.05,0.121-0.147,0.217-0.268,0.268c-0.061,0.025-0.125,0.038-0.189,0.038c-0.065,0-0.128-0.013-0.189-0.038l-1.008-0.418   C61.632,19.757,61.513,19.467,61.617,19.215z M57.499,17.96l0.803-2.995c0.035-0.127,0.117-0.235,0.231-0.299   c0.114-0.066,0.247-0.082,0.376-0.05l1.055,0.283c0.264,0.071,0.42,0.342,0.35,0.607L59.51,18.5   c-0.035,0.127-0.117,0.235-0.231,0.299c-0.076,0.044-0.161,0.067-0.247,0.067c-0.042,0-0.086-0.006-0.128-0.016l-1.055-0.283   C57.585,18.496,57.428,18.225,57.499,17.96z M53.658,14.181c0.036-0.271,0.287-0.46,0.555-0.426l1.083,0.142   c0.129,0.017,0.247,0.085,0.327,0.189c0.08,0.104,0.115,0.236,0.099,0.366l-0.405,3.075c-0.017,0.129-0.086,0.248-0.189,0.327   c-0.087,0.067-0.193,0.102-0.301,0.102c-0.021,0-0.043-0.001-0.065-0.004l-1.084-0.143c-0.13-0.017-0.248-0.086-0.327-0.189   c-0.08-0.104-0.115-0.236-0.099-0.366L53.658,14.181z M48.478,14.009c0-0.273,0.221-0.495,0.495-0.495h0.473h1.092h0.489   c0.273,0,0.495,0.221,0.495,0.495v6.152c0,0.273-0.221,0.495-0.495,0.495h-2.054c-0.273,0-0.495-0.221-0.495-0.495V14.009z    M44.361,14.087c0.08-0.104,0.198-0.172,0.327-0.189l1.083-0.142c0.263-0.035,0.52,0.155,0.555,0.426l0.405,3.074   c0.036,0.27-0.155,0.52-0.426,0.555l-1.083,0.143c-0.021,0.003-0.043,0.004-0.065,0.004c-0.108,0-0.214-0.036-0.301-0.102   c-0.103-0.079-0.172-0.198-0.189-0.327l-0.405-3.075C44.246,14.322,44.28,14.191,44.361,14.087z M40.02,14.899l1.056-0.283   c0.128-0.032,0.262-0.015,0.376,0.05c0.114,0.065,0.196,0.173,0.231,0.299l0.803,2.995c0.071,0.265-0.086,0.535-0.35,0.607   L41.08,18.85c-0.042,0.011-0.086,0.016-0.128,0.016c-0.086,0-0.171-0.022-0.247-0.067c-0.114-0.065-0.196-0.173-0.231-0.299   l-0.803-2.995C39.6,15.241,39.756,14.97,40.02,14.899z M35.257,16.769c0.05-0.121,0.147-0.217,0.268-0.268l1.009-0.418   c0.25-0.105,0.541,0.014,0.646,0.268l1.187,2.865c0.05,0.121,0.05,0.257,0,0.379c-0.05,0.121-0.147,0.217-0.268,0.268l-1.009,0.418   c-0.061,0.025-0.125,0.038-0.189,0.038c-0.065,0-0.128-0.013-0.189-0.038c-0.121-0.05-0.217-0.147-0.268-0.268l-1.187-2.865   C35.206,17.027,35.206,16.89,35.257,16.769z M30.637,19.216c0.035-0.127,0.117-0.235,0.231-0.299l0.393-0.227   c0.006-0.004,0.01-0.01,0.016-0.014l0.946-0.546c0.006-0.004,0.014-0.003,0.02-0.007l0.405-0.234   c0.236-0.138,0.539-0.056,0.675,0.181l3.076,5.328c0.137,0.237,0.056,0.539-0.181,0.675l-1.779,1.028   c-0.075,0.044-0.161,0.067-0.247,0.067c-0.042,0-0.086-0.006-0.127-0.016c-0.127-0.035-0.236-0.117-0.3-0.231l-3.076-5.328   C30.622,19.478,30.603,19.344,30.637,19.216z M27.347,21.387l0.866-0.665c0.104-0.079,0.231-0.116,0.366-0.099   c0.129,0.017,0.248,0.086,0.327,0.189l1.887,2.46c0.166,0.217,0.126,0.527-0.091,0.693l-0.866,0.665   c-0.087,0.067-0.193,0.102-0.301,0.102c-0.021,0-0.042-0.001-0.065-0.004c-0.129-0.017-0.248-0.086-0.327-0.189l-1.887-2.46   C27.09,21.863,27.131,21.553,27.347,21.387z M23.807,24.587l0.772-0.773c0.185-0.185,0.514-0.185,0.699,0l2.193,2.193   c0.093,0.093,0.145,0.218,0.145,0.35s-0.052,0.257-0.145,0.35l-0.773,0.772c-0.097,0.097-0.223,0.145-0.35,0.145   s-0.253-0.048-0.35-0.145l-2.192-2.192C23.613,25.093,23.613,24.78,23.807,24.587z M20.713,28.222l0.665-0.867   c0.079-0.103,0.198-0.172,0.327-0.189c0.128-0.019,0.262,0.018,0.366,0.099l2.46,1.888c0.216,0.166,0.257,0.476,0.091,0.693   l-0.664,0.866c-0.098,0.127-0.244,0.193-0.392,0.193c-0.105,0-0.212-0.033-0.301-0.102l-2.461-1.887   c-0.103-0.079-0.172-0.197-0.189-0.327C20.598,28.458,20.633,28.327,20.713,28.222z M17.889,32.647l0.22-0.381   c0.006-0.012,0.005-0.024,0.012-0.036l0.546-0.947c0.007-0.012,0.02-0.02,0.028-0.032l0.222-0.384   c0.136-0.236,0.439-0.318,0.675-0.181l5.328,3.076c0.237,0.136,0.318,0.438,0.181,0.675l-1.027,1.779   c-0.065,0.114-0.173,0.196-0.299,0.231c-0.042,0.011-0.086,0.016-0.128,0.016c-0.086,0-0.171-0.022-0.247-0.067l-5.328-3.076   c-0.114-0.065-0.196-0.173-0.231-0.3C17.805,32.895,17.823,32.761,17.889,32.647z M16.074,36.542l0.418-1.009   c0.05-0.121,0.147-0.217,0.268-0.268c0.122-0.05,0.257-0.05,0.379,0l2.865,1.187c0.252,0.104,0.372,0.393,0.268,0.646l-0.417,1.009   c-0.05,0.121-0.146,0.217-0.268,0.268c-0.061,0.025-0.125,0.038-0.189,0.038s-0.128-0.013-0.189-0.038l-2.866-1.187   c-0.121-0.05-0.217-0.147-0.268-0.268C16.024,36.799,16.024,36.663,16.074,36.542z M14.608,41.084l0.282-1.055   c0.034-0.127,0.117-0.235,0.231-0.3c0.113-0.067,0.249-0.082,0.375-0.05l2.996,0.803c0.127,0.035,0.236,0.117,0.3,0.231   c0.066,0.114,0.084,0.249,0.05,0.376l-0.283,1.055c-0.06,0.22-0.26,0.366-0.478,0.366c-0.042,0-0.085-0.006-0.128-0.016   l-2.995-0.803C14.694,41.619,14.538,41.348,14.608,41.084z M13.89,44.696c0.036-0.272,0.29-0.464,0.555-0.426l3.074,0.405   c0.129,0.017,0.248,0.086,0.327,0.189c0.08,0.104,0.115,0.236,0.099,0.366l-0.143,1.084c-0.033,0.249-0.245,0.43-0.49,0.43   c-0.022,0-0.043-0.001-0.066-0.004l-3.074-0.405c-0.129-0.017-0.248-0.086-0.327-0.189c-0.08-0.104-0.115-0.236-0.099-0.366   L13.89,44.696z M13.515,51.027v-0.438c-0.001-0.015-0.009-0.028-0.009-0.043v-1.092c0-0.015,0.007-0.028,0.009-0.043v-0.438   c0-0.273,0.221-0.495,0.495-0.495h6.152c0.273,0,0.495,0.221,0.495,0.495v2.054c0,0.273-0.221,0.495-0.495,0.495h-6.152   C13.736,51.521,13.515,51.3,13.515,51.027z M14.379,55.733c-0.244,0-0.457-0.181-0.49-0.43l-0.143-1.083   c-0.016-0.13,0.018-0.262,0.099-0.366c0.079-0.103,0.198-0.172,0.327-0.189l3.074-0.405c0.264-0.036,0.52,0.154,0.555,0.426   l0.143,1.083c0.016,0.13-0.018,0.262-0.099,0.366c-0.079,0.103-0.198,0.172-0.327,0.189l-3.074,0.405   C14.423,55.732,14.401,55.733,14.379,55.733z M15.368,60.337c-0.086,0-0.172-0.022-0.247-0.067c-0.114-0.066-0.197-0.174-0.231-0.3   l-0.282-1.056c-0.071-0.264,0.086-0.534,0.35-0.606l2.995-0.803c0.268-0.064,0.535,0.086,0.607,0.35l0.283,1.056   c0.034,0.127,0.015,0.262-0.05,0.376c-0.065,0.114-0.173,0.196-0.3,0.231l-2.996,0.803C15.454,60.331,15.411,60.337,15.368,60.337z    M16.949,64.772c-0.065,0-0.128-0.013-0.189-0.038c-0.121-0.05-0.217-0.147-0.268-0.268l-0.418-1.009   c-0.05-0.121-0.05-0.257,0-0.379c0.05-0.121,0.147-0.217,0.268-0.268l2.866-1.187c0.122-0.05,0.257-0.05,0.379,0   c0.122,0.05,0.217,0.147,0.268,0.268l0.417,1.009c0.104,0.253-0.015,0.542-0.268,0.646l-2.865,1.187   C17.078,64.76,17.014,64.772,16.949,64.772z M19.345,69.379c-0.17,0-0.336-0.089-0.428-0.247l-0.222-0.384   c-0.008-0.012-0.021-0.02-0.028-0.032l-0.546-0.947c-0.007-0.011-0.006-0.024-0.012-0.036l-0.22-0.381   c-0.066-0.114-0.084-0.248-0.05-0.375c0.035-0.127,0.117-0.236,0.231-0.3l5.328-3.076c0.115-0.066,0.247-0.082,0.376-0.05   c0.127,0.035,0.235,0.117,0.299,0.231l1.027,1.779c0.137,0.237,0.056,0.539-0.181,0.675l-5.328,3.076   C19.514,69.358,19.429,69.379,19.345,69.379z M21.771,72.837c-0.148,0-0.295-0.067-0.392-0.193l-0.665-0.866   c-0.08-0.104-0.115-0.236-0.099-0.366c0.017-0.129,0.086-0.248,0.189-0.327l2.461-1.887c0.215-0.167,0.526-0.126,0.693,0.091   l0.664,0.866c0.166,0.217,0.126,0.527-0.091,0.693l-2.46,1.887C21.982,72.804,21.876,72.837,21.771,72.837z M24.928,76.33   c-0.127,0-0.253-0.048-0.35-0.145l-0.772-0.772c-0.193-0.193-0.193-0.506,0-0.699l2.192-2.193c0.185-0.185,0.514-0.185,0.699,0   l0.773,0.773c0.093,0.093,0.145,0.218,0.145,0.35s-0.052,0.257-0.145,0.35l-2.193,2.192C25.181,76.281,25.055,76.33,24.928,76.33z    M28.58,79.377c-0.022,0.003-0.043,0.004-0.065,0.004c-0.108,0-0.214-0.036-0.301-0.102l-0.866-0.665   c-0.216-0.166-0.257-0.476-0.091-0.693l1.887-2.46c0.079-0.103,0.198-0.172,0.327-0.189c0.134-0.019,0.262,0.018,0.366,0.099   l0.866,0.665c0.216,0.166,0.257,0.476,0.091,0.693l-1.887,2.46C28.828,79.291,28.709,79.359,28.58,79.377z M32.894,82.177   c-0.084,0-0.169-0.021-0.247-0.067l-0.41-0.236c-0.005-0.003-0.011-0.001-0.015-0.004l-0.946-0.546   c-0.006-0.004-0.01-0.01-0.016-0.014l-0.393-0.227c-0.114-0.065-0.196-0.173-0.231-0.299c-0.034-0.127-0.015-0.262,0.05-0.376   l3.076-5.328c0.065-0.114,0.173-0.196,0.3-0.231c0.125-0.033,0.262-0.016,0.375,0.05l1.779,1.028   c0.237,0.136,0.318,0.438,0.181,0.675l-3.076,5.328C33.231,82.088,33.064,82.177,32.894,82.177z M38.367,80.785L37.18,83.65   c-0.079,0.19-0.263,0.305-0.457,0.305c-0.064,0-0.127-0.012-0.189-0.038l-1.009-0.418c-0.121-0.05-0.217-0.147-0.268-0.268   c-0.05-0.122-0.05-0.258,0-0.379l1.187-2.865c0.05-0.121,0.147-0.217,0.268-0.268c0.122-0.05,0.257-0.05,0.379,0l1.009,0.418   c0.121,0.05,0.217,0.147,0.268,0.268C38.417,80.528,38.417,80.664,38.367,80.785z M42.485,82.038l-0.803,2.996   c-0.035,0.127-0.117,0.236-0.231,0.3c-0.076,0.044-0.161,0.067-0.247,0.067c-0.042,0-0.086-0.006-0.128-0.016l-1.056-0.283   c-0.264-0.071-0.42-0.342-0.35-0.607l0.803-2.995c0.071-0.262,0.34-0.415,0.606-0.35l1.056,0.282   c0.127,0.034,0.235,0.117,0.3,0.231C42.5,81.776,42.519,81.911,42.485,82.038z M46.326,85.819   c-0.017,0.129-0.086,0.248-0.189,0.327c-0.087,0.067-0.193,0.102-0.301,0.102c-0.021,0-0.043-0.001-0.065-0.004l-1.083-0.143   c-0.27-0.036-0.462-0.285-0.426-0.555l0.405-3.074c0.017-0.129,0.086-0.248,0.189-0.327c0.104-0.08,0.237-0.117,0.366-0.099   l1.083,0.143c0.27,0.036,0.462,0.285,0.426,0.555L46.326,85.819z M51.521,85.991c0,0.273-0.221,0.495-0.495,0.495h-0.489h-1.092   h-0.473c-0.273,0-0.495-0.221-0.495-0.495v-6.152c0-0.273,0.221-0.495,0.495-0.495h2.054c0.273,0,0.495,0.221,0.495,0.495V85.991z    M55.296,86.102l-1.083,0.143c-0.021,0.003-0.043,0.004-0.065,0.004c-0.108,0-0.214-0.036-0.301-0.102   c-0.103-0.079-0.172-0.197-0.189-0.327l-0.406-3.074c-0.016-0.13,0.018-0.262,0.099-0.366c0.079-0.103,0.197-0.172,0.327-0.189   l1.084-0.143c0.128-0.018,0.262,0.018,0.366,0.099c0.103,0.079,0.172,0.198,0.189,0.327l0.405,3.074   C55.757,85.817,55.566,86.066,55.296,86.102z M59.963,85.101l-1.055,0.283c-0.042,0.011-0.086,0.016-0.128,0.016   c-0.086,0-0.171-0.022-0.247-0.067c-0.114-0.065-0.196-0.173-0.231-0.3l-0.803-2.996c-0.034-0.127-0.015-0.262,0.05-0.375   c0.066-0.114,0.174-0.197,0.3-0.231l1.055-0.282c0.266-0.066,0.534,0.088,0.606,0.35l0.803,2.995   C60.383,84.759,60.226,85.03,59.963,85.101z M64.726,83.231c-0.05,0.121-0.147,0.217-0.268,0.268l-1.009,0.418   c-0.061,0.025-0.125,0.038-0.189,0.038c-0.065,0-0.128-0.013-0.189-0.038c-0.121-0.05-0.217-0.147-0.268-0.268l-1.186-2.865   c-0.104-0.252,0.015-0.542,0.268-0.646l1.008-0.418c0.122-0.05,0.257-0.05,0.379,0c0.121,0.05,0.217,0.147,0.268,0.268l1.187,2.865   C64.776,82.973,64.776,83.11,64.726,83.231z M69.363,80.784c-0.035,0.127-0.117,0.235-0.231,0.299l-1.779,1.027   c-0.078,0.045-0.163,0.067-0.247,0.067c-0.17,0-0.337-0.089-0.428-0.247l-3.076-5.328c-0.137-0.237-0.056-0.539,0.181-0.675   l1.779-1.028c0.113-0.067,0.249-0.083,0.375-0.05c0.127,0.035,0.236,0.117,0.3,0.231l3.076,5.328   C69.378,80.522,69.397,80.656,69.363,80.784z M72.636,78.613l-0.866,0.665c-0.087,0.067-0.193,0.102-0.301,0.102   c-0.021,0-0.042-0.001-0.065-0.004c-0.129-0.017-0.247-0.086-0.327-0.189l-1.888-2.46c-0.166-0.217-0.126-0.527,0.091-0.693   l0.866-0.665c0.104-0.08,0.232-0.117,0.366-0.099c0.129,0.017,0.247,0.086,0.327,0.189l1.888,2.46   C72.893,78.137,72.853,78.447,72.636,78.613z M76.177,75.413l-0.773,0.772c-0.097,0.097-0.223,0.145-0.35,0.145   c-0.127,0-0.253-0.048-0.35-0.145l-2.192-2.192c-0.193-0.193-0.193-0.506,0-0.699l0.773-0.773c0.093-0.093,0.218-0.145,0.35-0.145   c0.131,0,0.257,0.052,0.35,0.145l2.192,2.193c0.093,0.093,0.145,0.218,0.145,0.35S76.27,75.32,76.177,75.413z M79.27,71.778   l-0.664,0.866c-0.098,0.127-0.244,0.193-0.392,0.193c-0.105,0-0.212-0.033-0.301-0.102l-2.461-1.887   c-0.103-0.079-0.172-0.198-0.189-0.327c-0.016-0.13,0.018-0.262,0.099-0.366l0.665-0.866c0.167-0.216,0.477-0.258,0.693-0.091   l2.46,1.887C79.395,71.25,79.436,71.56,79.27,71.778z M82.11,67.353l-1.027,1.779c-0.065,0.114-0.173,0.196-0.299,0.231   c-0.042,0.011-0.086,0.016-0.128,0.016c-0.086,0-0.171-0.022-0.247-0.067l-5.328-3.076c-0.237-0.136-0.318-0.438-0.181-0.675   l1.027-1.779c0.065-0.114,0.173-0.196,0.299-0.231c0.129-0.032,0.262-0.015,0.376,0.05l5.328,3.076   C82.166,66.814,82.247,67.116,82.11,67.353z M83.908,63.458l-0.418,1.009c-0.05,0.121-0.147,0.217-0.268,0.268   c-0.061,0.025-0.125,0.038-0.189,0.038c-0.065,0-0.128-0.013-0.189-0.038l-2.865-1.187c-0.252-0.104-0.372-0.394-0.268-0.646   l0.418-1.009c0.05-0.121,0.147-0.217,0.268-0.268c0.122-0.05,0.257-0.05,0.379,0l2.865,1.187c0.121,0.05,0.217,0.147,0.268,0.268   C83.959,63.201,83.959,63.337,83.908,63.458z M85.375,58.916l-0.283,1.056c-0.06,0.22-0.26,0.366-0.478,0.366   c-0.042,0-0.085-0.006-0.128-0.016l-2.995-0.803c-0.127-0.035-0.235-0.117-0.299-0.231c-0.066-0.114-0.084-0.248-0.05-0.376   l0.283-1.056c0.071-0.263,0.343-0.412,0.607-0.35l2.995,0.803c0.127,0.035,0.235,0.117,0.299,0.231   C85.391,58.654,85.409,58.788,85.375,58.916z M86.094,55.303c-0.017,0.129-0.085,0.247-0.189,0.327   c-0.087,0.067-0.193,0.102-0.301,0.102c-0.021,0-0.043-0.001-0.065-0.004l-3.074-0.405c-0.27-0.036-0.461-0.284-0.426-0.555   l0.142-1.083c0.017-0.129,0.085-0.247,0.189-0.327c0.104-0.079,0.238-0.115,0.366-0.099l3.074,0.405   c0.27,0.036,0.461,0.284,0.426,0.555L86.094,55.303z M85.991,51.521h-6.152c-0.273,0-0.495-0.221-0.495-0.495v-2.054   c0-0.273,0.221-0.495,0.495-0.495h6.152c0.273,0,0.495,0.221,0.495,0.495v2.054C86.485,51.3,86.264,51.521,85.991,51.521z"/><rect x="83.376" y="49.948" fill="none" width="2.111" height="0.103"/><path fill="none" d="M50,5.989C25.733,5.989,5.989,25.733,5.989,50S25.733,94.011,50,94.011S94.011,74.267,94.011,50   S74.267,5.989,50,5.989z M50,88.073c-20.994,0-38.074-17.08-38.074-38.073c0-20.994,17.08-38.074,38.074-38.074   c20.993,0,38.073,17.08,38.073,38.074C88.073,70.993,70.993,88.073,50,88.073z"/><rect x="83.081" y="54.443" transform="matrix(-0.9914 -0.1308 0.1308 -0.9914 160.4247 119.5258)" fill="none" width="2.112" height="0.103"/><rect x="76.131" y="65.147" transform="matrix(-0.866 -0.5 0.5 -0.866 111.1414 161.1402)" fill="none" width="2.056" height="1.066"/><rect x="78.761" y="67.168" transform="matrix(-0.8659 -0.5002 0.5002 -0.8659 115.3125 165.3497)" fill="none" width="2.113" height="0.104"/><rect x="45.445" y="83.09" transform="matrix(-0.9914 -0.1309 0.1309 -0.9914 79.5831 173.5238)" fill="none" width="0.103" height="2.111"/><rect x="82.202" y="58.862" transform="matrix(-0.9659 -0.2589 0.2589 -0.9659 148.4287 137.3714)" fill="none" width="2.112" height="0.104"/><rect x="33.784" y="76.13" transform="matrix(-0.8657 -0.5005 0.5005 -0.8657 25.4048 161.1428)" fill="none" width="1.066" height="2.068"/><rect x="28.974" y="76.268" transform="matrix(-0.7944 -0.6075 0.6075 -0.7944 5.1121 156.3773)" fill="none" width="0.103" height="2.111"/><rect x="25.588" y="73.297" transform="matrix(-0.7071 -0.7071 0.7071 -0.7071 -8.8073 145.0578)" fill="none" width="0.102" height="2.112"/><rect x="36.76" y="80.763" transform="matrix(-0.9239 -0.3826 0.3826 -0.9239 39.5159 171.4966)" fill="none" width="0.103" height="2.112"/><rect x="32.721" y="78.77" transform="matrix(-0.8661 -0.4999 0.4999 -0.8661 21.2531 165.3415)" fill="none" width="0.104" height="2.108"/><rect x="41.026" y="82.21" transform="matrix(-0.9656 -0.26 0.26 -0.9656 59.0958 174.3492)" fill="none" width="0.104" height="2.113"/><path d="M50,5C25.187,5,5,25.187,5,50s20.187,45,45,45s45-20.187,45-45S74.813,5,50,5z M50,94.011   C25.733,94.011,5.989,74.267,5.989,50S25.733,5.989,50,5.989S94.011,25.733,94.011,50S74.267,94.011,50,94.011z"/><path d="M50,11.926c-20.994,0-38.074,17.08-38.074,38.074c0,20.993,17.08,38.073,38.074,38.073   c20.993,0,38.073-17.08,38.073-38.073C88.073,29.006,70.993,11.926,50,11.926z M50,87.084c-20.449,0-37.085-16.635-37.085-37.084   S29.551,12.915,50,12.915S87.084,29.551,87.084,50S70.449,87.084,50,87.084z"/><path d="M50,21.781C34.439,21.781,21.78,34.44,21.78,50S34.439,78.219,50,78.219c15.56,0,28.219-12.659,28.219-28.219   S65.56,21.781,50,21.781z M50,77.23c-15.015,0-27.231-12.215-27.231-27.23S34.985,22.77,50,22.77S77.23,34.985,77.23,50   S65.015,77.23,50,77.23z"/><path d="M50,23.96c-14.359,0-26.041,11.682-26.041,26.04S35.641,76.04,50,76.04c14.358,0,26.04-11.682,26.04-26.04   S64.358,23.96,50,23.96z M50,75.051c-13.813,0-25.052-11.237-25.052-25.051S36.187,24.949,50,24.949S75.051,36.187,75.051,50   S63.813,75.051,50,75.051z"/><path d="M48.972,20.656h2.054c0.273,0,0.495-0.221,0.495-0.495v-6.152c0-0.273-0.221-0.495-0.495-0.495h-0.489h-1.092h-0.473   c-0.273,0-0.495,0.221-0.495,0.495v6.152C48.478,20.435,48.699,20.656,48.972,20.656z M49.94,14.504h0.103v2.111H49.94V14.504z    M49.467,17.604h1.065v2.063h-1.065V17.604z"/><path d="M51.027,79.344h-2.054c-0.273,0-0.495,0.221-0.495,0.495v6.152c0,0.273,0.221,0.495,0.495,0.495h0.473h1.092h0.489   c0.273,0,0.495-0.221,0.495-0.495v-6.152C51.521,79.565,51.3,79.344,51.027,79.344z M50.043,85.496H49.94v-2.112h0.103V85.496z    M50.532,82.395h-1.065v-2.062h1.065V82.395z"/><path d="M33.763,24.92c0.065,0.114,0.173,0.196,0.3,0.231c0.042,0.011,0.085,0.016,0.127,0.016c0.086,0,0.172-0.022,0.247-0.067   l1.779-1.028c0.237-0.136,0.318-0.438,0.181-0.675l-3.076-5.328c-0.136-0.237-0.439-0.319-0.675-0.181l-0.405,0.234   c-0.006,0.003-0.014,0.003-0.02,0.007l-0.946,0.546c-0.006,0.004-0.01,0.01-0.016,0.014l-0.393,0.227   c-0.114,0.065-0.196,0.173-0.231,0.299c-0.034,0.127-0.015,0.262,0.05,0.376L33.763,24.92z M35.295,23.465l-0.923,0.532   l-1.034-1.79l0.923-0.533L35.295,23.465z M32.291,19.237l1.054,1.826l-0.09,0.051l-1.053-1.825L32.291,19.237z"/><path d="M66.237,75.08c-0.065-0.114-0.173-0.196-0.3-0.231c-0.126-0.033-0.262-0.016-0.375,0.05l-1.779,1.028   c-0.237,0.136-0.318,0.438-0.181,0.675l3.076,5.328c0.091,0.158,0.258,0.247,0.428,0.247c0.084,0,0.169-0.021,0.247-0.067   l1.779-1.027c0.114-0.065,0.196-0.173,0.231-0.299c0.034-0.127,0.015-0.262-0.05-0.376L66.237,75.08z M64.705,76.535l0.923-0.532   l1.029,1.782l-0.923,0.533L64.705,76.535z M67.695,80.767l-1.057-1.829l0.091-0.051l1.056,1.828L67.695,80.767z"/><path d="M18.07,33.322l5.328,3.076c0.076,0.044,0.161,0.067,0.247,0.067c0.042,0,0.086-0.006,0.128-0.016   c0.127-0.035,0.235-0.117,0.299-0.231l1.027-1.779c0.137-0.237,0.056-0.539-0.181-0.675l-5.328-3.076   c-0.236-0.137-0.539-0.055-0.675,0.181l-0.222,0.384c-0.008,0.012-0.021,0.02-0.028,0.032l-0.546,0.947   c-0.007,0.011-0.006,0.024-0.012,0.036l-0.22,0.381c-0.066,0.114-0.084,0.248-0.05,0.375C17.874,33.149,17.956,33.257,18.07,33.322   z M22.204,33.337l1.793,1.035l-0.533,0.923l-1.793-1.035L22.204,33.337z M19.283,32.21l1.822,1.052l-0.051,0.091L19.231,32.3   L19.283,32.21z"/><path d="M81.929,66.678l-5.328-3.076c-0.114-0.066-0.246-0.082-0.376-0.05c-0.127,0.035-0.235,0.117-0.299,0.231l-1.027,1.779   c-0.137,0.237-0.056,0.539,0.181,0.675l5.328,3.076c0.076,0.044,0.161,0.067,0.247,0.067c0.042,0,0.086-0.006,0.128-0.016   c0.127-0.035,0.235-0.117,0.299-0.231l1.027-1.779C82.247,67.116,82.166,66.814,81.929,66.678z M77.783,66.656l-1.781-1.028   l0.533-0.923l1.78,1.028L77.783,66.656z M80.707,67.794l-1.829-1.057l0.052-0.09l1.828,1.056L80.707,67.794z"/><path d="M20.162,51.521c0.273,0,0.495-0.221,0.495-0.495v-2.054c0-0.273-0.221-0.495-0.495-0.495h-6.152   c-0.273,0-0.495,0.221-0.495,0.495v0.438c-0.001,0.015-0.009,0.028-0.009,0.043v1.092c0,0.015,0.007,0.028,0.009,0.043v0.438   c0,0.273,0.221,0.495,0.495,0.495H20.162z M17.596,49.467h2.071v1.065h-2.071V49.467z M14.504,49.948h2.104v0.103h-2.104V49.948z"/><path d="M85.991,48.478h-6.152c-0.273,0-0.495,0.221-0.495,0.495v2.054c0,0.273,0.221,0.495,0.495,0.495h6.152   c0.273,0,0.495-0.221,0.495-0.495v-2.054C86.485,48.699,86.264,48.478,85.991,48.478z M82.387,50.532h-2.054v-1.065h2.054V50.532z    M85.488,50.051h-2.111v-0.103h2.111V50.051z"/><path d="M25.1,65.561l-1.027-1.779c-0.065-0.114-0.173-0.196-0.299-0.231c-0.128-0.032-0.261-0.015-0.376,0.05l-5.328,3.076   c-0.114,0.065-0.196,0.173-0.231,0.3c-0.034,0.127-0.015,0.261,0.05,0.375l0.22,0.381c0.006,0.012,0.005,0.024,0.012,0.036   l0.546,0.947c0.007,0.012,0.02,0.02,0.028,0.032l0.222,0.384c0.092,0.158,0.258,0.247,0.428,0.247c0.084,0,0.169-0.021,0.247-0.067   l5.328-3.076C25.156,66.1,25.237,65.798,25.1,65.561z M19.283,67.789L19.231,67.7l1.823-1.053l0.051,0.09L19.283,67.789z    M22.205,66.663l-0.534-0.923l1.793-1.035l0.533,0.923L22.205,66.663z"/><path d="M74.899,34.439l1.027,1.779c0.065,0.114,0.173,0.196,0.299,0.231c0.042,0.011,0.086,0.016,0.128,0.016   c0.086,0,0.171-0.022,0.247-0.067l5.328-3.076c0.237-0.136,0.318-0.438,0.181-0.675l-1.027-1.779   c-0.065-0.114-0.173-0.196-0.299-0.231c-0.127-0.031-0.262-0.016-0.376,0.05l-5.328,3.076C74.843,33.9,74.762,34.202,74.899,34.439   z M80.707,32.206l0.051,0.091l-1.828,1.056l-0.052-0.09L80.707,32.206z M77.782,33.344l0.533,0.924l-1.78,1.027l-0.533-0.923   L77.782,33.344z"/><path d="M36.218,75.927l-1.779-1.028c-0.113-0.067-0.25-0.083-0.375-0.05c-0.127,0.035-0.236,0.117-0.3,0.231l-3.076,5.328   c-0.066,0.114-0.084,0.248-0.05,0.376c0.035,0.127,0.117,0.235,0.231,0.299l0.393,0.227c0.006,0.004,0.01,0.01,0.016,0.014   l0.946,0.546c0.005,0.003,0.011,0.002,0.015,0.004l0.41,0.236c0.078,0.045,0.163,0.067,0.247,0.067c0.17,0,0.337-0.089,0.428-0.247   l3.076-5.328C36.535,76.365,36.454,76.063,36.218,75.927z M32.291,80.763l-0.09-0.052l1.054-1.825l0.09,0.051L32.291,80.763z    M34.261,78.326l-0.923-0.534l1.033-1.789l0.923,0.532L34.261,78.326z"/><path d="M63.782,24.073l1.779,1.028c0.075,0.044,0.161,0.067,0.247,0.067c0.042,0,0.086-0.006,0.127-0.016   c0.127-0.035,0.236-0.117,0.3-0.231l3.076-5.328c0.066-0.114,0.084-0.248,0.05-0.376c-0.035-0.127-0.117-0.235-0.231-0.299   l-1.779-1.027c-0.236-0.137-0.539-0.055-0.675,0.181l-3.076,5.328C63.465,23.635,63.546,23.937,63.782,24.073z M67.695,19.233   l0.09,0.051l-1.057,1.829l-0.089-0.052L67.695,19.233z M65.734,21.682l0.923,0.532l-1.029,1.782l-0.923-0.532L65.734,21.682z"/><path d="M44.856,17.855c0.087,0.067,0.193,0.102,0.301,0.102c0.021,0,0.043-0.001,0.065-0.004l1.083-0.143   c0.27-0.036,0.462-0.285,0.426-0.555l-0.405-3.074c-0.036-0.27-0.293-0.461-0.555-0.426l-1.083,0.142   c-0.129,0.017-0.247,0.085-0.327,0.189c-0.08,0.104-0.115,0.236-0.099,0.366l0.405,3.075   C44.684,17.657,44.753,17.776,44.856,17.855z M45.409,14.8l0.276,2.094l-0.102,0.014l-0.276-2.094L45.409,14.8z"/><path d="M55.128,82.145c-0.104-0.08-0.238-0.117-0.366-0.099l-1.084,0.143c-0.13,0.017-0.248,0.086-0.327,0.189   c-0.08,0.104-0.115,0.236-0.099,0.366l0.406,3.074c0.017,0.13,0.086,0.248,0.189,0.327c0.087,0.067,0.193,0.102,0.301,0.102   c0.021,0,0.043-0.001,0.065-0.004l1.083-0.143c0.27-0.036,0.462-0.285,0.426-0.555l-0.405-3.074   C55.3,82.343,55.231,82.224,55.128,82.145z M54.574,85.199l-0.276-2.093l0.102-0.014l0.276,2.093L54.574,85.199z"/><path d="M40.473,18.5c0.035,0.127,0.117,0.235,0.231,0.299c0.076,0.044,0.161,0.067,0.247,0.067c0.042,0,0.086-0.006,0.128-0.016   l1.056-0.283c0.264-0.071,0.42-0.342,0.35-0.607l-0.803-2.995c-0.035-0.127-0.117-0.235-0.231-0.299   c-0.114-0.066-0.247-0.082-0.376-0.05l-1.056,0.283c-0.264,0.071-0.42,0.342-0.35,0.607L40.473,18.5z M40.855,15.699l0.547,2.04   l-0.1,0.027l-0.547-2.04L40.855,15.699z"/><path d="M59.51,81.5c-0.071-0.262-0.34-0.415-0.606-0.35l-1.055,0.282c-0.127,0.034-0.235,0.117-0.3,0.231   c-0.066,0.113-0.084,0.248-0.05,0.375l0.803,2.996c0.035,0.127,0.117,0.236,0.231,0.3c0.076,0.044,0.161,0.067,0.247,0.067   c0.042,0,0.086-0.006,0.128-0.016l1.055-0.283c0.264-0.071,0.42-0.342,0.35-0.607L59.51,81.5z M59.129,84.301l-0.547-2.041   l0.099-0.026l0.547,2.04L59.129,84.301z"/><path d="M36.444,20.012c0.05,0.121,0.147,0.217,0.268,0.268c0.061,0.025,0.125,0.038,0.189,0.038c0.065,0,0.128-0.013,0.189-0.038   l1.009-0.418c0.121-0.05,0.217-0.147,0.268-0.268c0.05-0.122,0.05-0.258,0-0.379L37.18,16.35c-0.105-0.253-0.396-0.373-0.646-0.268   l-1.009,0.418c-0.121,0.05-0.217,0.147-0.268,0.268c-0.05,0.122-0.05,0.258,0,0.379L36.444,20.012z M36.455,17.186l0.808,1.951   l-0.096,0.04l-0.808-1.951L36.455,17.186z"/><path d="M63.539,79.988c-0.05-0.121-0.147-0.217-0.268-0.268c-0.122-0.05-0.257-0.05-0.379,0l-1.008,0.418   c-0.252,0.104-0.372,0.394-0.268,0.646l1.186,2.865c0.05,0.121,0.147,0.217,0.268,0.268c0.061,0.025,0.125,0.038,0.189,0.038   c0.065,0,0.128-0.013,0.189-0.038l1.009-0.418c0.121-0.05,0.217-0.147,0.268-0.268c0.05-0.122,0.05-0.258,0-0.379L63.539,79.988z    M63.527,82.814l-0.807-1.951l0.095-0.04l0.808,1.951L63.527,82.814z"/><path d="M29.144,24.541c0.079,0.103,0.198,0.172,0.327,0.189c0.022,0.003,0.043,0.004,0.065,0.004c0.108,0,0.214-0.036,0.301-0.102   l0.866-0.665c0.216-0.166,0.257-0.476,0.091-0.693l-1.887-2.46c-0.079-0.103-0.198-0.172-0.327-0.189   c-0.135-0.017-0.262,0.019-0.366,0.099l-0.866,0.665c-0.216,0.166-0.257,0.476-0.091,0.693L29.144,24.541z M28.424,21.807   l1.285,1.676l-0.082,0.063l-1.285-1.676L28.424,21.807z"/><path d="M70.839,75.459c-0.08-0.103-0.198-0.172-0.327-0.189c-0.134-0.018-0.262,0.018-0.366,0.099l-0.866,0.665   c-0.216,0.166-0.257,0.476-0.091,0.693l1.888,2.46c0.08,0.103,0.198,0.172,0.327,0.189c0.022,0.003,0.043,0.004,0.065,0.004   c0.108,0,0.214-0.036,0.301-0.102l0.866-0.665c0.216-0.166,0.257-0.476,0.091-0.693L70.839,75.459z M71.559,78.193l-1.286-1.676   l0.082-0.063l1.286,1.676L71.559,78.193z"/><path d="M25.999,27.479c0.097,0.097,0.223,0.145,0.35,0.145s0.253-0.048,0.35-0.145l0.773-0.772   c0.093-0.093,0.145-0.218,0.145-0.35s-0.052-0.257-0.145-0.35l-2.193-2.193c-0.185-0.185-0.514-0.185-0.699,0l-0.772,0.773   c-0.193,0.193-0.193,0.506,0,0.699L25.999,27.479z M24.928,24.863l1.494,1.494l-0.073,0.072l-1.493-1.493L24.928,24.863z"/><path d="M73.984,72.52c-0.093-0.093-0.218-0.145-0.35-0.145c-0.131,0-0.257,0.052-0.35,0.145l-0.773,0.773   c-0.193,0.193-0.193,0.506,0,0.699l2.192,2.192c0.097,0.097,0.223,0.145,0.35,0.145c0.127,0,0.253-0.048,0.35-0.145l0.773-0.772   c0.093-0.093,0.145-0.218,0.145-0.35s-0.052-0.257-0.145-0.35L73.984,72.52z M75.055,75.136l-1.493-1.493l0.073-0.073l1.493,1.494   L75.055,75.136z"/><path d="M23.265,30.803c0.09,0.07,0.196,0.102,0.301,0.102c0.148,0,0.295-0.067,0.392-0.193l0.664-0.866   c0.166-0.217,0.126-0.527-0.091-0.693l-2.46-1.888c-0.104-0.08-0.238-0.118-0.366-0.099c-0.129,0.017-0.248,0.086-0.327,0.189   l-0.665,0.867c-0.08,0.104-0.115,0.236-0.099,0.366c0.017,0.13,0.086,0.248,0.189,0.327L23.265,30.803z M21.861,28.35l1.676,1.286   l-0.063,0.081l-1.676-1.286L21.861,28.35z"/><path d="M76.719,69.197c-0.216-0.167-0.526-0.126-0.693,0.091l-0.665,0.866c-0.08,0.104-0.115,0.236-0.099,0.366   c0.017,0.129,0.086,0.248,0.189,0.327l2.461,1.887c0.09,0.07,0.196,0.102,0.301,0.102c0.148,0,0.295-0.067,0.392-0.193l0.664-0.866   c0.166-0.217,0.126-0.527-0.091-0.693L76.719,69.197z M78.121,71.649l-1.676-1.285l0.063-0.082l1.676,1.286L78.121,71.649z"/><path d="M16.342,37.188l2.866,1.187c0.061,0.025,0.125,0.038,0.189,0.038s0.128-0.013,0.189-0.038   c0.122-0.05,0.217-0.147,0.268-0.268l0.417-1.009c0.104-0.253-0.015-0.542-0.268-0.646l-2.865-1.187   c-0.122-0.05-0.257-0.05-0.379,0c-0.121,0.05-0.217,0.147-0.268,0.268l-0.418,1.009c-0.05,0.121-0.05,0.257,0,0.379   C16.124,37.041,16.221,37.138,16.342,37.188z M17.217,36.368l1.951,0.808l-0.039,0.096l-1.952-0.808L17.217,36.368z"/><path d="M83.641,62.812l-2.865-1.187c-0.122-0.05-0.257-0.05-0.379,0c-0.121,0.05-0.217,0.147-0.268,0.268l-0.418,1.009   c-0.104,0.252,0.015,0.542,0.268,0.646l2.865,1.187c0.061,0.025,0.125,0.038,0.189,0.038c0.065,0,0.128-0.013,0.189-0.038   c0.121-0.05,0.217-0.147,0.268-0.268l0.418-1.009c0.05-0.121,0.05-0.257,0-0.379C83.858,62.959,83.762,62.862,83.641,62.812z    M82.766,63.632l-1.951-0.808l0.04-0.096l1.951,0.808L82.766,63.632z"/><path d="M14.958,41.69l2.995,0.803c0.043,0.011,0.086,0.016,0.128,0.016c0.218,0,0.418-0.146,0.478-0.366l0.283-1.055   c0.034-0.127,0.015-0.262-0.05-0.376c-0.065-0.114-0.173-0.196-0.3-0.231l-2.996-0.803c-0.126-0.032-0.262-0.016-0.375,0.05   c-0.114,0.066-0.197,0.174-0.231,0.3l-0.282,1.055C14.538,41.348,14.694,41.619,14.958,41.69z M15.718,40.763l2.041,0.547   l-0.027,0.099l-2.04-0.547L15.718,40.763z"/><path d="M85.026,58.309l-2.995-0.803c-0.264-0.063-0.535,0.087-0.607,0.35l-0.283,1.056c-0.034,0.127-0.015,0.262,0.05,0.376   c0.065,0.114,0.173,0.196,0.299,0.231l2.995,0.803c0.043,0.011,0.086,0.016,0.128,0.016c0.218,0,0.418-0.146,0.478-0.366   l0.283-1.056c0.034-0.127,0.015-0.262-0.05-0.376C85.261,58.426,85.152,58.344,85.026,58.309z M84.265,59.237l-2.04-0.547   l0.027-0.1l2.04,0.547L84.265,59.237z"/><path d="M14.172,46.335l3.074,0.405c0.022,0.003,0.043,0.004,0.066,0.004c0.244,0,0.457-0.181,0.49-0.43l0.143-1.084   c0.016-0.13-0.018-0.262-0.099-0.366c-0.079-0.103-0.198-0.172-0.327-0.189l-3.074-0.405c-0.266-0.038-0.52,0.154-0.555,0.426   l-0.143,1.084c-0.016,0.13,0.018,0.262,0.099,0.366C13.924,46.249,14.043,46.317,14.172,46.335z M14.806,45.315l2.093,0.276   l-0.014,0.103l-2.093-0.276L14.806,45.315z"/><path d="M85.81,53.665l-3.074-0.405c-0.128-0.016-0.262,0.019-0.366,0.099c-0.104,0.08-0.172,0.198-0.189,0.327l-0.142,1.083   c-0.035,0.271,0.156,0.52,0.426,0.555l3.074,0.405c0.021,0.003,0.043,0.004,0.065,0.004c0.108,0,0.214-0.036,0.301-0.102   c0.104-0.08,0.172-0.198,0.189-0.327l0.142-1.083C86.271,53.949,86.081,53.701,85.81,53.665z M85.177,54.684l-2.094-0.276   l0.014-0.102l2.094,0.276L85.177,54.684z"/><path d="M17.847,55.135c0.08-0.104,0.115-0.236,0.099-0.366l-0.143-1.083c-0.036-0.272-0.292-0.462-0.555-0.426l-3.074,0.405   c-0.129,0.017-0.248,0.086-0.327,0.189c-0.08,0.104-0.115,0.236-0.099,0.366l0.143,1.083c0.033,0.249,0.245,0.43,0.49,0.43   c0.022,0,0.043-0.001,0.066-0.004l3.074-0.405C17.649,55.307,17.767,55.239,17.847,55.135z M14.806,54.684l-0.014-0.102   l2.093-0.276l0.014,0.102L14.806,54.684z"/><path d="M82.039,45.23l0.142,1.084c0.017,0.129,0.085,0.247,0.189,0.327c0.087,0.067,0.193,0.102,0.301,0.102   c0.021,0,0.043-0.001,0.065-0.004l3.074-0.405c0.27-0.036,0.461-0.284,0.426-0.555l-0.142-1.084   c-0.017-0.129-0.085-0.247-0.189-0.327c-0.104-0.08-0.237-0.117-0.366-0.099l-3.074,0.405C82.194,44.71,82.004,44.958,82.039,45.23   z M85.177,45.315l0.014,0.103l-2.094,0.276l-0.014-0.103L85.177,45.315z"/><path d="M18.792,59.287c0.066-0.114,0.084-0.248,0.05-0.376l-0.283-1.056c-0.071-0.264-0.339-0.413-0.607-0.35l-2.995,0.803   c-0.264,0.071-0.42,0.342-0.35,0.606l0.282,1.056c0.034,0.127,0.117,0.235,0.231,0.3c0.075,0.044,0.161,0.067,0.247,0.067   c0.042,0,0.086-0.006,0.127-0.016l2.996-0.803C18.619,59.483,18.727,59.401,18.792,59.287z M15.718,59.237l-0.026-0.1l2.04-0.547   l0.027,0.1L15.718,59.237z"/><path d="M81.192,40.713c-0.066,0.114-0.084,0.249-0.05,0.376l0.283,1.055c0.06,0.22,0.26,0.366,0.478,0.366   c0.042,0,0.085-0.006,0.128-0.016l2.995-0.803c0.127-0.035,0.235-0.117,0.299-0.231c0.066-0.114,0.084-0.249,0.05-0.376   l-0.283-1.055c-0.071-0.264-0.34-0.413-0.607-0.35l-2.995,0.803C81.364,40.517,81.256,40.599,81.192,40.713z M84.265,40.763   l0.027,0.099l-2.04,0.547l-0.027-0.099L84.265,40.763z"/><path d="M20.271,62.902l-0.417-1.009c-0.05-0.121-0.146-0.217-0.268-0.268c-0.122-0.05-0.257-0.05-0.379,0l-2.866,1.187   c-0.121,0.05-0.217,0.147-0.268,0.268c-0.05,0.122-0.05,0.258,0,0.379l0.418,1.009c0.05,0.121,0.147,0.217,0.268,0.268   c0.061,0.025,0.125,0.038,0.189,0.038c0.065,0,0.128-0.013,0.189-0.038l2.865-1.187C20.255,63.443,20.375,63.155,20.271,62.902z    M17.217,63.632l-0.04-0.096l1.952-0.808l0.039,0.096L17.217,63.632z"/><path d="M79.712,37.098l0.418,1.009c0.05,0.121,0.147,0.217,0.268,0.268c0.061,0.025,0.125,0.038,0.189,0.038   c0.065,0,0.128-0.013,0.189-0.038l2.865-1.187c0.121-0.05,0.217-0.147,0.268-0.268c0.05-0.122,0.05-0.258,0-0.379l-0.418-1.009   c-0.05-0.121-0.147-0.217-0.268-0.268c-0.122-0.05-0.257-0.05-0.379,0l-2.865,1.187C79.727,36.557,79.608,36.846,79.712,37.098z    M82.766,36.368l0.04,0.096l-1.951,0.808l-0.04-0.096L82.766,36.368z"/><path d="M24.623,70.154l-0.664-0.866c-0.167-0.216-0.478-0.258-0.693-0.091l-2.461,1.887c-0.103,0.079-0.172,0.198-0.189,0.327   c-0.016,0.13,0.018,0.262,0.099,0.366l0.665,0.866c0.098,0.127,0.244,0.193,0.392,0.193c0.105,0,0.212-0.033,0.301-0.102   l2.46-1.887C24.748,70.681,24.789,70.371,24.623,70.154z M21.861,71.649l-0.063-0.082l1.676-1.285l0.063,0.081L21.861,71.649z"/><path d="M75.261,29.48c-0.016,0.13,0.018,0.262,0.099,0.366l0.665,0.866c0.098,0.127,0.244,0.193,0.392,0.193   c0.105,0,0.212-0.033,0.301-0.102l2.46-1.887c0.216-0.166,0.257-0.476,0.091-0.693l-0.664-0.867   c-0.079-0.104-0.197-0.173-0.327-0.19c-0.129-0.018-0.262,0.018-0.366,0.099l-2.461,1.888   C75.347,29.232,75.279,29.351,75.261,29.48z M78.121,28.35l0.063,0.082l-1.676,1.286l-0.063-0.082L78.121,28.35z"/><path d="M27.616,73.643c0-0.131-0.052-0.257-0.145-0.35l-0.773-0.773c-0.185-0.185-0.514-0.185-0.699,0l-2.192,2.193   c-0.193,0.193-0.193,0.506,0,0.699l0.772,0.772c0.097,0.097,0.223,0.145,0.35,0.145s0.253-0.048,0.35-0.145l2.193-2.192   C27.564,73.899,27.616,73.774,27.616,73.643z M24.928,75.136l-0.072-0.072l1.493-1.494l0.073,0.073L24.928,75.136z"/><path d="M72.368,26.357c0,0.131,0.052,0.257,0.145,0.35l0.773,0.772c0.097,0.097,0.223,0.145,0.35,0.145   c0.127,0,0.253-0.048,0.35-0.145l2.192-2.192c0.193-0.193,0.193-0.506,0-0.699l-0.773-0.773c-0.185-0.185-0.514-0.185-0.699,0   l-2.192,2.193C72.42,26.101,72.368,26.226,72.368,26.357z M75.055,24.863l0.073,0.073l-1.493,1.493l-0.073-0.072L75.055,24.863z"/><path d="M30.704,76.034l-0.866-0.665c-0.104-0.08-0.232-0.118-0.366-0.099c-0.129,0.017-0.248,0.086-0.327,0.189l-1.887,2.46   c-0.166,0.217-0.126,0.527,0.091,0.693l0.866,0.665c0.087,0.067,0.193,0.102,0.301,0.102c0.021,0,0.042-0.001,0.065-0.004   c0.129-0.017,0.248-0.086,0.327-0.189l1.887-2.46C30.961,76.51,30.92,76.2,30.704,76.034z M28.424,78.193l-0.082-0.063l1.285-1.676   l0.082,0.063L28.424,78.193z"/><path d="M69.279,23.966l0.866,0.665c0.087,0.067,0.193,0.102,0.301,0.102c0.021,0,0.043-0.001,0.065-0.004   c0.129-0.017,0.247-0.086,0.327-0.189l1.888-2.46c0.166-0.217,0.126-0.527-0.091-0.693l-0.866-0.665   c-0.104-0.08-0.232-0.117-0.366-0.099c-0.129,0.017-0.247,0.086-0.327,0.189l-1.888,2.46C69.022,23.49,69.063,23.8,69.279,23.966z    M71.559,21.807l0.082,0.063l-1.286,1.676l-0.082-0.063L71.559,21.807z"/><path d="M38.099,80.139l-1.009-0.418c-0.122-0.05-0.257-0.05-0.379,0c-0.121,0.05-0.217,0.147-0.268,0.268l-1.187,2.865   c-0.05,0.121-0.05,0.257,0,0.379c0.05,0.121,0.147,0.217,0.268,0.268l1.009,0.418c0.062,0.026,0.126,0.038,0.189,0.038   c0.194,0,0.378-0.115,0.457-0.305l1.187-2.865c0.05-0.121,0.05-0.257,0-0.379C38.316,80.286,38.22,80.189,38.099,80.139z    M36.455,82.814l-0.096-0.04l0.808-1.951l0.096,0.04L36.455,82.814z"/><path d="M61.885,19.861l1.008,0.418c0.061,0.025,0.125,0.038,0.189,0.038c0.065,0,0.128-0.013,0.189-0.038   c0.121-0.05,0.217-0.147,0.268-0.268l1.187-2.865c0.05-0.121,0.05-0.257,0-0.379c-0.05-0.121-0.147-0.217-0.268-0.268l-1.009-0.418   c-0.122-0.05-0.257-0.05-0.379,0c-0.121,0.05-0.217,0.147-0.268,0.268l-1.186,2.865C61.513,19.467,61.632,19.757,61.885,19.861z    M63.527,17.186l0.096,0.04l-0.808,1.951l-0.095-0.04L63.527,17.186z"/><path d="M42.134,81.432l-1.056-0.282c-0.266-0.066-0.534,0.088-0.606,0.35l-0.803,2.995c-0.071,0.265,0.086,0.535,0.35,0.607   l1.056,0.283c0.042,0.011,0.086,0.016,0.128,0.016c0.086,0,0.171-0.022,0.247-0.067c0.114-0.065,0.196-0.173,0.231-0.3l0.803-2.996   c0.034-0.127,0.015-0.262-0.05-0.375C42.369,81.549,42.261,81.466,42.134,81.432z M40.855,84.301l-0.1-0.027l0.547-2.04l0.1,0.026   L40.855,84.301z"/><path d="M57.848,18.567l1.055,0.283c0.042,0.011,0.086,0.016,0.128,0.016c0.086,0,0.171-0.022,0.247-0.067   c0.114-0.065,0.196-0.173,0.231-0.299l0.803-2.995c0.071-0.265-0.086-0.535-0.35-0.607l-1.055-0.283   c-0.128-0.032-0.262-0.015-0.376,0.05c-0.114,0.065-0.196,0.173-0.231,0.299l-0.803,2.995   C57.428,18.225,57.585,18.496,57.848,18.567z M59.129,15.699l0.099,0.027l-0.547,2.04l-0.099-0.027L59.129,15.699z"/><path d="M46.305,82.189l-1.083-0.143c-0.129-0.018-0.262,0.018-0.366,0.099c-0.103,0.079-0.172,0.198-0.189,0.327l-0.405,3.074   c-0.036,0.27,0.155,0.52,0.426,0.555l1.083,0.143c0.021,0.003,0.043,0.004,0.065,0.004c0.108,0,0.214-0.036,0.301-0.102   c0.103-0.079,0.172-0.198,0.189-0.327l0.405-3.074C46.766,82.474,46.575,82.225,46.305,82.189z M45.409,85.199l-0.102-0.014   l0.276-2.093l0.102,0.014L45.409,85.199z"/><path d="M53.678,17.811l1.084,0.143c0.021,0.003,0.043,0.004,0.065,0.004c0.108,0,0.214-0.036,0.301-0.102   c0.103-0.079,0.172-0.198,0.189-0.327l0.405-3.075c0.016-0.13-0.018-0.262-0.099-0.366c-0.08-0.104-0.198-0.172-0.327-0.189   l-1.083-0.142c-0.269-0.034-0.52,0.155-0.555,0.426l-0.406,3.074c-0.016,0.13,0.018,0.262,0.099,0.366   C53.43,17.725,53.547,17.793,53.678,17.811z M54.574,14.8l0.102,0.014L54.4,16.908l-0.102-0.014L54.574,14.8z"/><path d="M57.145,46.735l7.718-10.631c0.143-0.197,0.122-0.468-0.05-0.64c-0.172-0.171-0.443-0.194-0.64-0.05L53.66,43.046   l-0.507-0.506l-2.412-15.194c-0.039-0.24-0.245-0.417-0.489-0.417s-0.45,0.177-0.489,0.417L48.146,37.54l-8.68-8.667   c-0.155-0.155-0.388-0.188-0.579-0.089c-0.191,0.099-0.296,0.312-0.258,0.524l0.106,0.604c0,0,0,0,0,0.001l1.465,8.309   l-3.868-2.808c-0.196-0.144-0.468-0.121-0.64,0.05c-0.172,0.172-0.193,0.443-0.05,0.64l5.527,7.614l0.628,3.56l-14.223,2.258   c-0.24,0.039-0.417,0.245-0.417,0.489s0.177,0.45,0.417,0.489l15.219,2.416l0.135,0.766c0.003,0.019,0.014,0.035,0.02,0.053   c0.008,0.027,0.017,0.053,0.029,0.079c0.001,0.003,0.002,0.006,0.003,0.009l-7.338,10.108c-0.143,0.197-0.122,0.468,0.05,0.64   c0.096,0.096,0.222,0.145,0.35,0.145c0.101,0,0.204-0.031,0.291-0.095l10.088-7.324l1.07,1.068l2.274,14.323   c0.039,0.24,0.245,0.417,0.489,0.417s0.45-0.177,0.489-0.417l1.518-9.561l8.33,8.317c0.047,0.047,0.103,0.084,0.162,0.108   c0.06,0.024,0.123,0.037,0.187,0.037c0.078,0,0.156-0.018,0.229-0.056c0.191-0.099,0.296-0.312,0.258-0.524l-1.694-9.612   l4.441,3.224c0.087,0.064,0.189,0.095,0.291,0.095c0.127,0,0.254-0.049,0.35-0.145c0.172-0.172,0.193-0.443,0.05-0.64l-6.187-8.521   l-0.454-2.576l14.709-2.335c0.24-0.039,0.417-0.245,0.417-0.489s-0.177-0.45-0.417-0.489l-15.733-2.498L57.145,46.735z    M62.233,38.044l-5.708,7.862l-2.156-2.153L62.233,38.044z M50.253,30.577l1.71,10.774l-2.952-2.948L50.253,30.577z M38.272,38.043   l2.175,1.579l0.33,1.873L38.272,38.043z M30.806,50.024l11.163-1.772l0.643,3.646L30.806,50.024z M38.272,62.005l5.4-7.438   l2.04,2.037L38.272,62.005z M50.253,69.471l-1.572-9.903l2.713,2.709L50.253,69.471z M62.233,62.005l-2.748-1.995l-0.417-2.364   L62.233,62.005z M58.543,60.366c0,0.003,0.001,0.005,0.001,0.008l1.635,9.279L43.875,53.372L43.7,52.381   c0-0.002-0.001-0.004-0.001-0.006L41.39,39.272c-0.001-0.006-0.002-0.012-0.003-0.018l-1.511-8.575l16.306,16.282l0.106,0.6   c0.003,0.014,0.004,0.028,0.007,0.041l0.866,4.912c0,0,0,0.001,0,0.001c0,0,0,0.001,0,0.001l0.564,3.198   c0.001,0.007,0.002,0.014,0.004,0.021L58.543,60.366z M69.7,50.024l-11.649,1.849l-0.67-3.804L69.7,50.024z"/><path d="M51.916,44.075c-0.608-0.191-1.236-0.289-1.867-0.289c-2.724,0-5.103,1.747-5.922,4.347   c-0.498,1.583-0.351,3.265,0.415,4.736c0.767,1.471,2.061,2.556,3.643,3.054c0.608,0.191,1.236,0.289,1.867,0.289   c0.001,0,0,0,0.001,0c2.723,0,5.102-1.747,5.922-4.347C57.004,48.598,55.183,45.103,51.916,44.075z M55.032,51.568   c-0.689,2.187-2.69,3.656-4.98,3.656c-0.53,0-1.059-0.082-1.569-0.242c-1.331-0.419-2.418-1.332-3.063-2.569   c-0.645-1.237-0.77-2.651-0.351-3.981c0.689-2.187,2.69-3.656,4.98-3.656c0.53,0,1.059,0.082,1.569,0.242   c1.331,0.419,2.418,1.332,3.063,2.569C55.327,48.824,55.45,50.238,55.032,51.568z"/><path d="M50.793,47.642c-1.28-0.405-2.699,0.339-3.099,1.614c-0.41,1.3,0.315,2.691,1.615,3.1c0.241,0.076,0.492,0.115,0.742,0.115   c0.001,0,0.001,0,0.001,0c1.084,0,2.03-0.695,2.357-1.73c0.199-0.63,0.14-1.299-0.165-1.884   C51.937,48.271,51.423,47.839,50.793,47.642z M51.465,50.444c-0.24,0.764-1.085,1.214-1.859,0.97   c-0.78-0.246-1.215-1.081-0.97-1.86c0.196-0.621,0.764-1.037,1.413-1.037c0.151,0,0.3,0.023,0.447,0.069   c0.378,0.119,0.687,0.378,0.869,0.729C51.549,49.666,51.584,50.067,51.465,50.444z"/></g></svg>
