<svg width="30" height="30" viewBox="0 0 30 30" version="1.1" xmlns="http://www.w3.org/2000/svg" xmlns:xlink="http://www.w3.org/1999/xlink" xmlns:figma="http://www.figma.com/figma/ns">
<title>noun_807095_cc 2</title>
<desc>Created using Figma</desc>
<g id="Canvas" transform="translate(-342 70)" figma:type="canvas">
<g id="noun_807095_cc 2" style="mix-blend-mode:normal;" figma:type="frame">
<g id="Group" style="mix-blend-mode:normal;" figma:type="frame">
<g id="Vector" style="mix-blend-mode:normal;" figma:type="vector">
<use xlink:href="#path0_fill" transform="translate(347.923 -64.0767)" fill="#6CCBF1" style="mix-blend-mode:normal;"/>
</g>
<g id="Vector" style="mix-blend-mode:normal;" figma:type="vector">
<use xlink:href="#path1_fill" transform="translate(356.523 -55.4947)" fill="#F79E5A" style="mix-blend-mode:normal;"/>
</g>
<g id="Vector" style="mix-blend-mode:normal;" figma:type="vector">
<use xlink:href="#path2_fill" transform="translate(353.625 -61.4403)" fill="#F79E5A" style="mix-blend-mode:normal;"/>
</g>
<g id="Vector" style="mix-blend-mode:normal;" figma:type="vector">
<use xlink:href="#path3_fill" transform="translate(342 -70)" style="mix-blend-mode:normal;"/>
</g>
<g id="Vector" style="mix-blend-mode:normal;" figma:type="vector">
<use xlink:href="#path4_fill" transform="translate(344.309 -67.6913)" style="mix-blend-mode:normal;"/>
</g>
<g id="Vector" style="mix-blend-mode:normal;" figma:type="vector">
<use xlink:href="#path5_fill" transform="translate(347.593 -64.4063)" style="mix-blend-mode:normal;"/>
</g>
<g id="Vector" style="mix-blend-mode:normal;" figma:type="vector">
<use xlink:href="#path6_fill" transform="translate(348.32 -63.68)" style="mix-blend-mode:normal;"/>
</g>
<g id="Vector" style="mix-blend-mode:normal;" figma:type="vector">
<use xlink:href="#path7_fill" transform="translate(356.492 -67.162)" style="mix-blend-mode:normal;"/>
</g>
<g id="Vector" style="mix-blend-mode:normal;" figma:type="vector">
<use xlink:href="#path8_fill" transform="translate(356.493 -45.2187)" style="mix-blend-mode:normal;"/>
</g>
<g id="Vector" style="mix-blend-mode:normal;" figma:type="vector">
<use xlink:href="#path9_fill" transform="translate(350.539 -65.7264)" style="mix-blend-mode:normal;"/>
</g>
<g id="Vector" style="mix-blend-mode:normal;" figma:type="vector">
<use xlink:href="#path10_fill" transform="translate(361.512 -46.7225)" style="mix-blend-mode:normal;"/>
</g>
<g id="Vector" style="mix-blend-mode:normal;" figma:type="vector">
<use xlink:href="#path11_fill" transform="translate(346.273 -61.4595)" style="mix-blend-mode:normal;"/>
</g>
<g id="Vector" style="mix-blend-mode:normal;" figma:type="vector">
<use xlink:href="#path12_fill" transform="translate(365.277 -50.488)" style="mix-blend-mode:normal;"/>
</g>
<g id="Vector" style="mix-blend-mode:normal;" figma:type="vector">
<use xlink:href="#path13_fill" transform="translate(344.835 -55.5077)" style="mix-blend-mode:normal;"/>
</g>
<g id="Vector" style="mix-blend-mode:normal;" figma:type="vector">
<use xlink:href="#path14_fill" transform="translate(366.781 -55.5073)" style="mix-blend-mode:normal;"/>
</g>
<g id="Vector" style="mix-blend-mode:normal;" figma:type="vector">
<use xlink:href="#path15_fill" transform="translate(346.274 -50.4882)" style="mix-blend-mode:normal;"/>
</g>
<g id="Vector" style="mix-blend-mode:normal;" figma:type="vector">
<use xlink:href="#path16_fill" transform="translate(365.277 -61.4595)" style="mix-blend-mode:normal;"/>
</g>
<g id="Vector" style="mix-blend-mode:normal;" figma:type="vector">
<use xlink:href="#path17_fill" transform="translate(350.54 -46.7225)" style="mix-blend-mode:normal;"/>
</g>
<g id="Vector" style="mix-blend-mode:normal;" figma:type="vector">
<use xlink:href="#path18_fill" transform="translate(361.512 -65.7251)" style="mix-blend-mode:normal;"/>
</g>
<g id="Vector" style="mix-blend-mode:normal;" figma:type="vector">
<use xlink:href="#path19_fill" transform="translate(355.086 -67.083)" style="mix-blend-mode:normal;"/>
</g>
<g id="Vector" style="mix-blend-mode:normal;" figma:type="vector">
<use xlink:href="#path20_fill" transform="translate(358.083 -44.3195)" style="mix-blend-mode:normal;"/>
</g>
<g id="Vector" style="mix-blend-mode:normal;" figma:type="vector">
<use xlink:href="#path21_fill" transform="translate(353.551 -66.8)" style="mix-blend-mode:normal;"/>
</g>
<g id="Vector" style="mix-blend-mode:normal;" figma:type="vector">
<use xlink:href="#path22_fill" transform="translate(359.494 -44.6216)" style="mix-blend-mode:normal;"/>
</g>
<g id="Vector" style="mix-blend-mode:normal;" figma:type="vector">
<use xlink:href="#path23_fill" transform="translate(352.073 -66.3187)" style="mix-blend-mode:normal;"/>
</g>
<g id="Vector" style="mix-blend-mode:normal;" figma:type="vector">
<use xlink:href="#path24_fill" transform="translate(360.86 -45.1058)" style="mix-blend-mode:normal;"/>
</g>
<g id="Vector" style="mix-blend-mode:normal;" figma:type="vector">
<use xlink:href="#path25_fill" transform="translate(349.385 -64.793)" style="mix-blend-mode:normal;"/>
</g>
<g id="Vector" style="mix-blend-mode:normal;" figma:type="vector">
<use xlink:href="#path26_fill" transform="translate(363.362 -46.5782)" style="mix-blend-mode:normal;"/>
</g>
<g id="Vector" style="mix-blend-mode:normal;" figma:type="vector">
<use xlink:href="#path27_fill" transform="translate(348.221 -63.7749)" style="mix-blend-mode:normal;"/>
</g>
<g id="Vector" style="mix-blend-mode:normal;" figma:type="vector">
<use xlink:href="#path28_fill" transform="translate(364.455 -47.5417)" style="mix-blend-mode:normal;"/>
</g>
<g id="Vector" style="mix-blend-mode:normal;" figma:type="vector">
<use xlink:href="#path29_fill" transform="translate(347.203 -62.6129)" style="mix-blend-mode:normal;"/>
</g>
<g id="Vector" style="mix-blend-mode:normal;" figma:type="vector">
<use xlink:href="#path30_fill" transform="translate(365.419 -48.6352)" style="mix-blend-mode:normal;"/>
</g>
<g id="Vector" style="mix-blend-mode:normal;" figma:type="vector">
<use xlink:href="#path31_fill" transform="translate(345.678 -59.9242)" style="mix-blend-mode:normal;"/>
</g>
<g id="Vector" style="mix-blend-mode:normal;" figma:type="vector">
<use xlink:href="#path32_fill" transform="translate(366.891 -51.1375)" style="mix-blend-mode:normal;"/>
</g>
<g id="Vector" style="mix-blend-mode:normal;" figma:type="vector">
<use xlink:href="#path33_fill" transform="translate(345.197 -58.446)" style="mix-blend-mode:normal;"/>
</g>
<g id="Vector" style="mix-blend-mode:normal;" figma:type="vector">
<use xlink:href="#path34_fill" transform="translate(367.375 -52.5028)" style="mix-blend-mode:normal;"/>
</g>
<g id="Vector" style="mix-blend-mode:normal;" figma:type="vector">
<use xlink:href="#path35_fill" transform="translate(344.914 -56.9116)" style="mix-blend-mode:normal;"/>
</g>
<g id="Vector" style="mix-blend-mode:normal;" figma:type="vector">
<use xlink:href="#path36_fill" transform="translate(367.678 -53.9146)" style="mix-blend-mode:normal;"/>
</g>
<g id="Vector" style="mix-blend-mode:normal;" figma:type="vector">
<use xlink:href="#path37_fill" transform="translate(344.915 -53.9148)" style="mix-blend-mode:normal;"/>
</g>
<g id="Vector" style="mix-blend-mode:normal;" figma:type="vector">
<use xlink:href="#path38_fill" transform="translate(367.678 -56.9118)" style="mix-blend-mode:normal;"/>
</g>
<g id="Vector" style="mix-blend-mode:normal;" figma:type="vector">
<use xlink:href="#path39_fill" transform="translate(345.197 -52.5031)" style="mix-blend-mode:normal;"/>
</g>
<g id="Vector" style="mix-blend-mode:normal;" figma:type="vector">
<use xlink:href="#path40_fill" transform="translate(367.375 -58.4451)" style="mix-blend-mode:normal;"/>
</g>
<g id="Vector" style="mix-blend-mode:normal;" figma:type="vector">
<use xlink:href="#path41_fill" transform="translate(345.678 -51.1375)" style="mix-blend-mode:normal;"/>
</g>
<g id="Vector" style="mix-blend-mode:normal;" figma:type="vector">
<use xlink:href="#path42_fill" transform="translate(366.891 -59.9245)" style="mix-blend-mode:normal;"/>
</g>
<g id="Vector" style="mix-blend-mode:normal;" figma:type="vector">
<use xlink:href="#path43_fill" transform="translate(347.204 -48.6351)" style="mix-blend-mode:normal;"/>
</g>
<g id="Vector" style="mix-blend-mode:normal;" figma:type="vector">
<use xlink:href="#path44_fill" transform="translate(365.419 -62.6128)" style="mix-blend-mode:normal;"/>
</g>
<g id="Vector" style="mix-blend-mode:normal;" figma:type="vector">
<use xlink:href="#path45_fill" transform="translate(348.221 -47.5396)" style="mix-blend-mode:normal;"/>
</g>
<g id="Vector" style="mix-blend-mode:normal;" figma:type="vector">
<use xlink:href="#path46_fill" transform="translate(364.456 -63.7746)" style="mix-blend-mode:normal;"/>
</g>
<g id="Vector" style="mix-blend-mode:normal;" figma:type="vector">
<use xlink:href="#path47_fill" transform="translate(349.385 -46.5783)" style="mix-blend-mode:normal;"/>
</g>
<g id="Vector" style="mix-blend-mode:normal;" figma:type="vector">
<use xlink:href="#path48_fill" transform="translate(363.362 -64.7938)" style="mix-blend-mode:normal;"/>
</g>
<g id="Vector" style="mix-blend-mode:normal;" figma:type="vector">
<use xlink:href="#path49_fill" transform="translate(352.073 -45.1055)" style="mix-blend-mode:normal;"/>
</g>
<g id="Vector" style="mix-blend-mode:normal;" figma:type="vector">
<use xlink:href="#path50_fill" transform="translate(360.86 -66.3188)" style="mix-blend-mode:normal;"/>
</g>
<g id="Vector" style="mix-blend-mode:normal;" figma:type="vector">
<use xlink:href="#path51_fill" transform="translate(353.551 -44.6217)" style="mix-blend-mode:normal;"/>
</g>
<g id="Vector" style="mix-blend-mode:normal;" figma:type="vector">
<use xlink:href="#path52_fill" transform="translate(359.494 -66.8002)" style="mix-blend-mode:normal;"/>
</g>
<g id="Vector" style="mix-blend-mode:normal;" figma:type="vector">
<use xlink:href="#path53_fill" transform="translate(355.086 -44.3195)" style="mix-blend-mode:normal;"/>
</g>
<g id="Vector" style="mix-blend-mode:normal;" figma:type="vector">
<use xlink:href="#path54_fill" transform="translate(358.083 -67.0823)" style="mix-blend-mode:normal;"/>
</g>
<g id="Vector" style="mix-blend-mode:normal;" figma:type="vector">
<use xlink:href="#path55_fill" transform="translate(349.386 -62.6903)" style="mix-blend-mode:normal;"/>
</g>
<g id="Vector" style="mix-blend-mode:normal;" figma:type="vector">
<use xlink:href="#path56_fill" transform="translate(354.946 -57.0713)" style="mix-blend-mode:normal;"/>
</g>
<g id="Vector" style="mix-blend-mode:normal;" figma:type="vector">
<use xlink:href="#path57_fill" transform="translate(356.193 -55.8229)" style="mix-blend-mode:normal;"/>
</g>
</g>
</g>
</g>
<defs>
<path id="path0_fill" d="M 9.077 1.52588e-07C 4.072 1.52588e-07 -3.0009e-07 4.07167 -3.0009e-07 9.07667C -3.0009e-07 14.0817 4.072 18.1533 9.077 18.1533C 14.082 18.1533 18.1537 14.0817 18.1537 9.07667C 18.1537 4.07167 14.082 1.52588e-07 9.077 1.52588e-07ZM 9.077 17.7567C 4.29067 17.7567 0.396667 13.8627 0.396667 9.07667C 0.396667 4.29067 4.29067 0.396666 9.077 0.396666C 13.863 0.396666 17.757 4.29067 17.757 9.07667C 17.757 13.8627 13.863 17.7567 9.077 17.7567Z"/>
<path id="path1_fill" d="M 0.642797 0.0229997C 0.593797 0.00799969 0.543798 -3.86556e-07 0.493798 -3.86556e-07C 0.277464 -3.86556e-07 0.0881315 0.138667 0.0227981 0.345667C -0.0588685 0.605334 0.0857973 0.883666 0.346131 0.965666C 0.604464 1.047 0.885798 0.897 0.965798 0.642334C 1.00546 0.516334 0.993798 0.383 0.932798 0.265667C 0.871798 0.149 0.768797 0.0626664 0.642797 0.0229997Z"/>
<path id="path2_fill" d="M 5.94967 8.345L 5.76167 7.279L 5.76167 7.27867L 5.76167 7.27833L 5.473 5.641C 5.47167 5.63633 5.47133 5.632 5.47067 5.62733L 5.43533 5.42733L 0 2.84831e-07L 0.503667 2.85833C 0.504001 2.86033 0.504333 2.86233 0.504667 2.86433L 1.27433 7.232C 1.27467 7.23267 1.27467 7.23333 1.27467 7.234L 1.333 7.56433L 6.76833 12.9913L 6.22333 9.89833C 6.22333 9.89733 6.223 9.89667 6.223 9.89567L 5.951 8.35233C 5.95033 8.34967 5.95 8.34733 5.94967 8.345ZM 5.36667 7.062C 5.09367 7.92867 4.30033 8.511 3.39267 8.511C 3.39233 8.511 3.39267 8.511 3.39233 8.511C 3.182 8.511 2.97267 8.47833 2.77 8.41467C 2.24267 8.24867 1.81133 7.887 1.55567 7.39667C 1.30033 6.906 1.251 6.34567 1.41733 5.818C 1.69033 4.95133 2.48367 4.369 3.39133 4.369C 3.60167 4.369 3.811 4.40167 4.01367 4.46533C 5.10267 4.808 5.70967 5.973 5.36667 7.062Z"/>
<path id="path3_fill" d="M 15 0C 6.729 0 0 6.729 0 15C 0 23.271 6.729 30 15 30C 23.271 30 30 23.271 30 15C 30 6.729 23.271 0 15 0ZM 15 29.6703C 6.911 29.6703 0.329667 23.089 0.329667 15C 0.329667 6.911 6.911 0.329667 15 0.329667C 23.089 0.329667 29.6703 6.911 29.6703 15C 29.6703 23.089 23.089 29.6703 15 29.6703Z"/>
<path id="path4_fill" d="M 12.6913 -1.19527e-07C 5.69333 -1.19527e-07 -1.19527e-07 5.69333 -1.19527e-07 12.6913C -1.19527e-07 19.689 5.69333 25.3823 12.6913 25.3823C 19.689 25.3823 25.3823 19.689 25.3823 12.6913C 25.3823 5.69333 19.689 -1.19527e-07 12.6913 -1.19527e-07ZM 12.6913 25.0527C 5.875 25.0527 0.329667 19.5077 0.329667 12.6913C 0.329667 5.875 5.875 0.329667 12.6913 0.329667C 19.5077 0.329667 25.0527 5.875 25.0527 12.6913C 25.0527 19.5077 19.5077 25.0527 12.6913 25.0527Z"/>
<path id="path5_fill" d="M 9.40667 4.57764e-08C 4.21967 4.57764e-08 2.28882e-07 4.21967 2.28882e-07 9.40633C 2.28882e-07 14.593 4.21967 18.8127 9.40667 18.8127C 14.5933 18.8127 18.813 14.593 18.813 9.40633C 18.813 4.21967 14.5933 4.57764e-08 9.40667 4.57764e-08ZM 9.40667 18.483C 4.40167 18.483 0.329666 14.4113 0.329666 9.40633C 0.329666 4.40133 4.40167 0.329667 9.40667 0.329667C 14.4117 0.329667 18.4833 4.40133 18.4833 9.40633C 18.4833 14.4113 14.4117 18.483 9.40667 18.483Z"/>
<path id="path6_fill" d="M 8.68033 -3.05176e-07C 3.894 -3.05176e-07 -1.2207e-07 3.894 -1.2207e-07 8.68C -1.2207e-07 13.466 3.894 17.36 8.68033 17.36C 13.4663 17.36 17.3603 13.466 17.3603 8.68C 17.3603 3.894 13.4663 -3.05176e-07 8.68033 -3.05176e-07ZM 8.68033 17.0303C 4.076 17.0303 0.329667 13.2847 0.329667 8.68C 0.329667 4.07533 4.076 0.329666 8.68033 0.329666C 13.2847 0.329666 17.0307 4.07567 17.0307 8.68C 17.0307 13.2843 13.2847 17.0303 8.68033 17.0303Z"/>
<path id="path7_fill" d="M 0.165 2.38067L 0.849667 2.38067C 0.940667 2.38067 1.01467 2.307 1.01467 2.21567L 1.01467 0.165C 1.01467 0.0739999 0.941 -2.03451e-08 0.849667 -2.03451e-08L 0.686666 -2.03451e-08L 0.322667 -2.03451e-08L 0.165 -2.03451e-08C 0.074 -2.03451e-08 3.96729e-07 0.0736666 3.96729e-07 0.165L 3.96729e-07 2.21567C 0.00033373 2.307 0.074 2.38067 0.165 2.38067ZM 0.487666 0.33L 0.522 0.33L 0.522 1.03367L 0.487666 1.03367L 0.487666 0.33ZM 0.33 1.36333L 0.685001 1.36333L 0.685001 2.051L 0.33 2.051L 0.33 1.36333Z"/>
<path id="path8_fill" d="M 0.849667 5.90006e-07L 0.165 5.90006e-07C 0.0739999 5.90006e-07 2.13623e-07 0.0736656 2.13623e-07 0.164999L 2.13623e-07 2.21567C 2.13623e-07 2.30667 0.0736665 2.38067 0.165 2.38067L 0.322666 2.38067L 0.686666 2.38067L 0.849667 2.38067C 0.940667 2.38067 1.01467 2.307 1.01467 2.21567L 1.01467 0.164999C 1.01433 0.0736656 0.940667 5.90006e-07 0.849667 5.90006e-07ZM 0.521666 2.05067L 0.487333 2.05067L 0.487333 1.34667L 0.521666 1.34667L 0.521666 2.05067ZM 0.684667 1.017L 0.329666 1.017L 0.329666 0.329667L 0.684667 0.329667L 0.684667 1.017Z"/>
<path id="path9_fill" d="M 1.0482 2.36636C 1.06987 2.40436 1.10587 2.43169 1.1482 2.44336C 1.1622 2.44703 1.17653 2.44869 1.19053 2.44869C 1.2192 2.44869 1.24787 2.44136 1.27287 2.42636L 1.86587 2.08369C 1.94487 2.03836 1.97187 1.93769 1.9262 1.85869L 0.900865 0.0826941C 0.855532 0.00369407 0.754532 -0.0236392 0.675866 0.0223608L 0.540866 0.100361C 0.538866 0.101361 0.536199 0.101361 0.534199 0.102694L 0.218866 0.284694C 0.216866 0.286027 0.215533 0.288027 0.213533 0.28936L 0.0825321 0.365027C 0.0445321 0.386694 0.0171991 0.422694 0.00553246 0.464694C -0.00580087 0.507027 0.00053221 0.552027 0.0221989 0.590027L 1.0482 2.36636ZM 1.55887 1.88136L 1.2512 2.05869L 0.906533 1.46203L 1.2142 1.28436L 1.55887 1.88136ZM 0.557532 0.472027L 0.908866 1.08069L 0.878866 1.09769L 0.527866 0.489361L 0.557532 0.472027Z"/>
<path id="path10_fill" d="M 0.900546 0.0824576C 0.878879 0.0444576 0.842878 0.0171234 0.800545 0.00545671C 0.758545 -0.00554329 0.713211 0.000124397 0.675545 0.0221244L 0.0825462 0.364791C 0.00354617 0.410124 -0.0234537 0.51079 0.0222129 0.58979L 1.04755 2.36579C 1.07788 2.41846 1.13355 2.44812 1.19021 2.44812C 1.21821 2.44812 1.24654 2.44112 1.27254 2.42579L 1.86555 2.08346C 1.90355 2.06179 1.93088 2.02579 1.94255 1.98379C 1.95388 1.94146 1.94755 1.89646 1.92588 1.85846L 0.900546 0.0824576ZM 0.38988 0.567458L 0.697545 0.390123L 1.04054 0.984125L 0.73288 1.16179L 0.38988 0.567458ZM 1.38655 1.97812L 1.03421 1.36846L 1.06454 1.35146L 1.41655 1.96079L 1.38655 1.97812Z"/>
<path id="path11_fill" d="M 0.0832717 0.900139L 1.85927 1.92547C 1.88461 1.94014 1.91294 1.94781 1.94161 1.94781C 1.95561 1.94781 1.97027 1.94581 1.98427 1.94247C 2.02661 1.93081 2.06261 1.90347 2.08394 1.86547L 2.42627 1.27247C 2.47194 1.19347 2.44494 1.09281 2.36594 1.04747L 0.589939 0.0221397C 0.511272 -0.023527 0.410272 0.0038063 0.364939 0.082473L 0.290939 0.210473C 0.288272 0.214473 0.283939 0.21714 0.281605 0.22114L 0.099605 0.536806C 0.0972717 0.540473 0.0976053 0.544807 0.0956053 0.548807L 0.0222716 0.675806C 0.000271559 0.713806 -0.00572819 0.758473 0.00560515 0.800806C 0.0179385 0.842473 0.0452717 0.878473 0.0832717 0.900139ZM 1.46127 0.90514L 2.05894 1.25014L 1.88127 1.55781L 1.2836 1.21281L 1.46127 0.90514ZM 0.487605 0.529473L 1.09494 0.88014L 1.07794 0.910473L 0.470272 0.559473L 0.487605 0.529473Z"/>
<path id="path12_fill" d="M 2.36555 1.04731L 0.589545 0.021976C 0.551545 -2.40405e-05 0.507545 -0.00535839 0.464212 0.00530828C 0.421879 0.0169749 0.38588 0.0443092 0.364547 0.0823092L 0.0222132 0.675308C -0.0234535 0.754308 0.00354646 0.854975 0.0825465 0.900309L 1.85854 1.92564C 1.88388 1.94031 1.91221 1.94797 1.94088 1.94797C 1.95488 1.94797 1.96954 1.94598 1.98354 1.94264C 2.02588 1.93098 2.06188 1.90364 2.08321 1.86564L 2.42555 1.27264C 2.47155 1.19331 2.44455 1.09264 2.36555 1.04731ZM 0.983545 1.03998L 0.389879 0.697308L 0.567547 0.389643L 1.16088 0.73231L 0.983545 1.03998ZM 1.95821 1.41931L 1.34855 1.06698L 1.36588 1.03698L 1.97521 1.38898L 1.95821 1.41931Z"/>
<path id="path13_fill" d="M 2.21867 1.01467C 2.30967 1.01467 2.38367 0.941 2.38367 0.849667L 2.38367 0.165C 2.38367 0.074 2.31 3.96729e-07 2.21867 3.96729e-07L 0.168 3.96729e-07C 0.0770001 3.96729e-07 0.00300011 0.0736667 0.00300011 0.165L 0.00300011 0.311C 0.00266678 0.316 -1.44959e-07 0.320333 -1.44959e-07 0.325333L -1.44959e-07 0.689333C -1.44959e-07 0.694333 0.00233345 0.698667 0.00300011 0.703667L 0.00300011 0.849667C 0.00300011 0.940667 0.0766668 1.01467 0.168 1.01467L 2.21867 1.01467ZM 1.36333 0.33L 2.05367 0.33L 2.05367 0.685001L 1.36333 0.685001L 1.36333 0.33ZM 0.332667 0.490334L 1.034 0.490334L 1.034 0.524666L 0.332667 0.524666L 0.332667 0.490334Z"/>
<path id="path14_fill" d="M 2.21567 2.13623e-07L 0.164999 2.13623e-07C 0.073999 2.13623e-07 5.90006e-07 0.0736665 5.90006e-07 0.165L 5.90006e-07 0.849667C 5.90006e-07 0.940667 0.0736656 1.01467 0.164999 1.01467L 2.21567 1.01467C 2.30667 1.01467 2.38067 0.941 2.38067 0.849667L 2.38067 0.165C 2.38033 0.0736665 2.30667 2.13623e-07 2.21567 2.13623e-07ZM 1.01433 0.684667L 0.329667 0.684667L 0.329667 0.329666L 1.01433 0.329666L 1.01433 0.684667ZM 2.048 0.524333L 1.34433 0.524333L 1.34433 0.490001L 2.048 0.490001L 2.048 0.524333Z"/>
<path id="path15_fill" d="M 2.42587 0.675235L 2.08353 0.0822366C 2.06187 0.0442367 2.02587 0.0169024 1.98387 0.00523572C 1.9412 -0.00543095 1.89687 0.000236735 1.85853 0.0219034L 0.0825323 1.04724C 0.0445323 1.0689 0.0171993 1.1049 0.00553262 1.14724C -0.00580071 1.18957 0.000532366 1.23424 0.022199 1.27224L 0.0955321 1.39924C 0.0975321 1.40324 0.0971992 1.40724 0.0995325 1.41124L 0.281532 1.7269C 0.283866 1.7309 0.288199 1.73357 0.290866 1.73757L 0.364866 1.86557C 0.395532 1.91824 0.450866 1.9479 0.507532 1.9479C 0.535532 1.9479 0.563865 1.9409 0.589865 1.92557L 2.36587 0.900236C 2.44453 0.854903 2.47153 0.754235 2.42587 0.675235ZM 0.486866 1.4179L 0.469533 1.38824L 1.0772 1.03724L 1.0942 1.06724L 0.486866 1.4179ZM 1.46087 1.04257L 1.28287 0.734902L 1.88053 0.389903L 2.0582 0.697569L 1.46087 1.04257Z"/>
<path id="path16_fill" d="M 0.0222252 1.27249L 0.364559 1.86549C 0.386225 1.90349 0.422224 1.93083 0.464224 1.94249C 0.478224 1.94616 0.49289 1.94783 0.50689 1.94783C 0.535557 1.94783 0.563891 1.94049 0.589224 1.92549L 2.36523 0.90016C 2.44423 0.854827 2.47123 0.754161 2.42556 0.675161L 2.08322 0.0821608C 2.06156 0.0441608 2.02556 0.0168271 1.98356 0.00516046C 1.94122 -0.00517287 1.89622 -0.000172488 1.85822 0.0218275L 0.0822253 1.04716C 0.00355861 1.09283 -0.0234415 1.19349 0.0222252 1.27249ZM 1.95822 0.528161L 1.97523 0.558494L 1.36589 0.910494L 1.34856 0.880494L 1.95822 0.528161ZM 0.983224 0.907495L 1.16089 1.21549L 0.567559 1.55783L 0.389891 1.25016L 0.983224 0.907495Z"/>
<path id="path17_fill" d="M 1.8656 0.364865L 1.2726 0.0221983C 1.23494 -0.000135049 1.18927 -0.0054694 1.1476 0.0055306C 1.10527 0.0171973 1.06894 0.0445315 1.04761 0.0825315L 0.0222718 1.85853C 0.000271757 1.89653 -0.00572799 1.9412 0.00560535 1.98386C 0.017272 2.0262 0.044605 2.0622 0.082605 2.08353L 0.213605 2.1592C 0.215605 2.16053 0.216938 2.16253 0.218938 2.16386L 0.534272 2.34587C 0.535938 2.34687 0.537938 2.34653 0.539271 2.3472L 0.675938 2.42586C 0.701938 2.44086 0.730272 2.4482 0.758272 2.4482C 0.814939 2.4482 0.870606 2.41853 0.900939 2.36586L 1.92627 0.589863C 1.97127 0.510863 1.94427 0.410198 1.8656 0.364865ZM 0.556605 1.97686L 0.526605 1.95953L 0.877939 1.3512L 0.907939 1.3682L 0.556605 1.97686ZM 1.21327 1.16453L 0.905606 0.986531L 1.24994 0.390197L 1.5576 0.567532L 1.21327 1.16453Z"/>
<path id="path18_fill" d="M 0.0824266 2.08281L 0.675425 2.42547C 0.700425 2.44014 0.729092 2.44781 0.757759 2.44781C 0.771759 2.44781 0.786425 2.44581 0.800092 2.44247C 0.842425 2.43081 0.87876 2.40347 0.900093 2.36547L 1.92543 0.589473C 1.94743 0.551473 1.95343 0.506806 1.94209 0.46414C 1.93043 0.421806 1.90309 0.385806 1.86509 0.364473L 1.27209 0.0221401C 1.19343 -0.0235266 1.09243 0.00380664 1.04709 0.0824733L 0.0217589 1.85847C -0.0232411 1.93681 0.00375989 2.03747 0.0824266 2.08281ZM 1.38676 0.469473L 1.41676 0.486473L 1.06442 1.09614L 1.03476 1.07881L 1.38676 0.469473ZM 0.733093 1.28581L 1.04076 1.46314L 0.697759 2.05714L 0.390093 1.87981L 0.733093 1.28581Z"/>
<path id="path19_fill" d="M 0.199262 1.36805C 0.228262 1.39038 0.263597 1.40205 0.299597 1.40205C 0.306597 1.40205 0.313929 1.40171 0.321263 1.40071L 0.682263 1.35305C 0.772263 1.34105 0.836262 1.25805 0.824262 1.16805L 0.689263 0.143379C 0.677263 0.0533787 0.591596 -0.0102879 0.504263 0.00137878L 0.143263 0.0487122C 0.100263 0.0543788 0.0609294 0.0770456 0.0342628 0.111712C 0.00759609 0.146379 -0.00407026 0.190379 0.00126308 0.233712L 0.136263 1.25871C 0.141929 1.30205 0.164929 1.34171 0.199262 1.36805ZM 0.383596 0.349712L 0.475596 1.04771L 0.441596 1.05238L 0.349596 0.354379L 0.383596 0.349712Z"/>
<path id="path20_fill" d="M 0.626595 0.0344896C 0.591929 0.00782296 0.547263 -0.00451005 0.504596 0.00148995L 0.143263 0.0491584C 0.0999299 0.0548251 0.0605966 0.0778235 0.0342633 0.112157C 0.00759664 0.146824 -0.00407097 0.190825 0.00126236 0.234159L 0.136596 1.25882C 0.142263 1.30216 0.165263 1.34149 0.199596 1.36782C 0.228596 1.39016 0.263929 1.40182 0.299929 1.40182C 0.306929 1.40182 0.314263 1.40149 0.321596 1.40049L 0.682597 1.35282C 0.772597 1.34082 0.836596 1.25782 0.824596 1.16782L 0.689596 0.143158C 0.68393 0.100491 0.660929 0.060823 0.626595 0.0344896ZM 0.44193 1.05249L 0.349929 0.354825L 0.38393 0.350158L 0.475929 1.04782L 0.44193 1.05249Z"/>
<path id="path21_fill" d="M 0.273576 1.29998C 0.285243 1.34231 0.312576 1.37831 0.350576 1.39964C 0.375909 1.41431 0.404243 1.42198 0.432909 1.42198C 0.446909 1.42198 0.461576 1.41998 0.475576 1.41664L 0.827576 1.32231C 0.915576 1.29864 0.967576 1.20831 0.944243 1.11998L 0.676576 0.121642C 0.664909 0.0793089 0.637576 0.043309 0.599576 0.0219757C 0.561576 -2.43162e-05 0.517243 -0.00535771 0.474243 0.00530895L 0.122243 0.0996423C 0.0342431 0.123309 -0.0177577 0.213642 0.00557568 0.301975L 0.273576 1.29998ZM 0.400909 0.366309L 0.583243 1.04631L 0.549909 1.05531L 0.367576 0.375309L 0.400909 0.366309Z"/>
<path id="path22_fill" d="M 0.675938 0.12164C 0.652271 0.0343062 0.562605 -0.0166933 0.473938 0.00497336L 0.122272 0.0989726C 0.0799382 0.110306 0.0439384 0.137974 0.0222718 0.175974C 0.000271777 0.21364 -0.00572797 0.25864 0.00560536 0.300974L 0.273271 1.29964C 0.284938 1.34197 0.312272 1.37831 0.350272 1.39964C 0.375606 1.41431 0.403938 1.42197 0.432605 1.42197C 0.446605 1.42197 0.461272 1.41997 0.475272 1.41664L 0.826939 1.32231C 0.914939 1.29864 0.966938 1.20831 0.943605 1.11997L 0.675938 0.12164ZM 0.548939 1.05531L 0.366605 0.374974L 0.399605 0.366307L 0.581939 1.04631L 0.548939 1.05531Z"/>
<path id="path23_fill" d="M 0.408167 1.32267C 0.424833 1.363 0.457167 1.395 0.497501 1.412C 0.517834 1.42034 0.539167 1.42467 0.5605 1.42467C 0.582167 1.42467 0.603167 1.42034 0.6235 1.412L 0.959833 1.27267C 1.00017 1.256 1.03217 1.22367 1.04917 1.18334C 1.06583 1.14267 1.06583 1.09734 1.04917 1.057L 0.6535 0.102004C 0.6185 0.0176706 0.5215 -0.0223293 0.438167 0.0126707L 0.101834 0.152004C 0.0615005 0.16867 0.0295 0.201004 0.0125 0.241337C -0.00416668 0.282004 -0.00416668 0.327337 0.0125 0.36767L 0.408167 1.32267ZM 0.411834 0.380671L 0.681167 1.031L 0.649167 1.04434L 0.379834 0.394004L 0.411834 0.380671Z"/>
<path id="path24_fill" d="M 0.653486 0.101833C 0.636819 0.0614997 0.604485 0.0295004 0.564152 0.0125004C 0.523485 -0.00416626 0.478485 -0.00416626 0.437818 0.0125004L 0.101818 0.151833C 0.0178184 0.1865 -0.0221808 0.283166 0.0124858 0.367166L 0.407818 1.32217C 0.424485 1.3625 0.456819 1.3945 0.497152 1.4115C 0.517485 1.41983 0.538818 1.42417 0.560152 1.42417C 0.581818 1.42417 0.602819 1.41983 0.623153 1.4115L 0.959486 1.27217C 0.999819 1.2555 1.03182 1.22317 1.04882 1.18283C 1.06548 1.14217 1.06548 1.09683 1.04882 1.0565L 0.653486 0.101833ZM 0.649486 1.04383L 0.380486 0.3935L 0.412152 0.380166L 0.681486 1.0305L 0.649486 1.04383Z"/>
<path id="path25_fill" d="M 0.663002 1.30671C 0.689335 1.34104 0.729002 1.36404 0.772002 1.36971C 0.779335 1.37071 0.786335 1.37104 0.793668 1.37104C 0.829668 1.37104 0.865002 1.35904 0.894002 1.33704L 1.18267 1.11538C 1.25467 1.06004 1.26834 0.956709 1.213 0.884376L 0.584002 0.0643756C 0.557668 0.0300422 0.518002 0.00704251 0.475002 0.00137584C 0.430002 -0.00429082 0.387669 0.00770949 0.353002 0.0343762L 0.0643351 0.256042C -0.00766489 0.311376 -0.0213314 0.414709 0.0340019 0.487043L 0.663002 1.30671ZM 0.423002 0.395376L 0.851335 0.954042L 0.824002 0.975042L 0.395668 0.416376L 0.423002 0.395376Z"/>
<path id="path26_fill" d="M 0.584001 0.0645141C 0.557334 0.0301807 0.518002 0.00717973 0.475002 0.00151307C 0.430336 -0.00448693 0.38767 0.00751528 0.353003 0.0345153L 0.0643349 0.25618C -0.00766515 0.311513 -0.0213304 0.414847 0.0340029 0.48718L 0.663336 1.30718C 0.690003 1.34151 0.729335 1.36451 0.772335 1.37018C 0.779668 1.37118 0.786669 1.37151 0.794003 1.37151C 0.830003 1.37151 0.865334 1.35951 0.894334 1.33751L 1.183 1.11585C 1.255 1.06051 1.26867 0.95718 1.21333 0.884847L 0.584001 0.0645141ZM 0.824001 0.975848L 0.395336 0.41718L 0.42267 0.396182L 0.851335 0.954847L 0.824001 0.975848Z"/>
<path id="path27_fill" d="M 0.778584 1.26792C 0.810917 1.30025 0.852917 1.31625 0.89525 1.31625C 0.937584 1.31625 0.979583 1.30025 1.01192 1.26792L 1.26958 1.01058C 1.30058 0.979584 1.31792 0.937917 1.31792 0.893917C 1.31792 0.849917 1.30058 0.80825 1.26958 0.77725L 0.538583 0.0462497C 0.476916 -0.0154169 0.36725 -0.0154169 0.305583 0.0462497L 0.0482502 0.303917C -0.0160831 0.36825 -0.0160831 0.472583 0.0482502 0.536916L 0.778584 1.26792ZM 0.421583 0.395917L 0.919584 0.893917L 0.89525 0.917917L 0.397584 0.42025L 0.421583 0.395917Z"/>
<path id="path28_fill" d="M 0.53925 0.0483322C 0.50825 0.0173322 0.466584 0 0.422584 0C 0.378918 0 0.336916 0.0173322 0.305916 0.0483322L 0.0482505 0.306C -0.0160828 0.370333 -0.0160828 0.474666 0.0482505 0.538999L 0.778918 1.26967C 0.811251 1.302 0.853251 1.318 0.895584 1.318C 0.937917 1.318 0.979917 1.302 1.01225 1.26967L 1.26992 1.01233C 1.30092 0.981334 1.31825 0.939665 1.31825 0.895665C 1.31825 0.851665 1.30092 0.809999 1.26992 0.778999L 0.53925 0.0483322ZM 0.89625 0.920334L 0.398582 0.422666L 0.422917 0.398333L 0.920583 0.896334L 0.89625 0.920334Z"/>
<path id="path29_fill" d="M 0.884929 1.21394C 0.914929 1.23727 0.950263 1.24794 0.985263 1.24794C 1.0346 1.24794 1.0836 1.22561 1.11593 1.18361L 1.33726 0.894941C 1.3926 0.822608 1.37926 0.719274 1.30693 0.663941L 0.486929 0.0346071C 0.452262 0.00794041 0.407596 -0.00472593 0.364929 0.0016074C 0.321929 0.00727407 0.282263 0.0302738 0.255929 0.0646071L 0.0342625 0.353607C 0.00759584 0.388274 -0.0040705 0.432274 0.00126284 0.475607C 0.0069295 0.51894 0.0299292 0.558274 0.0642626 0.584608L 0.884929 1.21394ZM 0.416929 0.396274L 0.975596 0.824941L 0.954596 0.85194L 0.395929 0.423274L 0.416929 0.396274Z"/>
<path id="path30_fill" d="M 0.48693 0.0342441C 0.41493 -0.0214225 0.311596 -0.00775472 0.25593 0.0645786L 0.0342628 0.353244C 0.00759609 0.387911 -0.00407026 0.43191 0.00126308 0.475243C 0.00692974 0.518243 0.0299282 0.557911 0.0642615 0.584245L 0.884597 1.21325C 0.914597 1.23658 0.949929 1.24724 0.984928 1.24724C 1.03426 1.24724 1.08326 1.22491 1.1156 1.18291L 1.33693 0.894245C 1.39226 0.821911 1.37893 0.718578 1.3066 0.663244L 0.48693 0.0342441ZM 0.954263 0.851579L 0.395596 0.423244L 0.416597 0.395911L 0.975262 0.824578L 0.954263 0.851579Z"/>
<path id="path31_fill" d="M 0.102166 0.6535L 1.0575 1.04917C 1.07783 1.0575 1.09917 1.06183 1.1205 1.06183C 1.14183 1.06183 1.16317 1.0575 1.1835 1.04917C 1.22417 1.0325 1.25583 1.00017 1.27283 0.959833L 1.41183 0.6235C 1.4465 0.539167 1.40683 0.442833 1.3225 0.408167L 0.3675 0.0124998C 0.326833 -0.00416687 0.281834 -0.00416687 0.241167 0.0124998C 0.200834 0.0291665 0.168833 0.0615003 0.151833 0.101834L 0.0125 0.438167C -0.00416668 0.4785 -0.00416668 0.523834 0.0125 0.5645C 0.0295 0.6045 0.061833 0.636833 0.102166 0.6535ZM 0.393833 0.380167L 1.04417 0.6495L 1.03117 0.6815L 0.3805 0.412167L 0.393833 0.380167Z"/>
<path id="path32_fill" d="M 1.32253 0.408167L 0.367531 0.0125C 0.326864 -0.00416667 0.281865 -0.00416667 0.241198 0.0125C 0.200865 0.0291667 0.168863 0.0615005 0.151863 0.101834L 0.0125302 0.438167C -0.0221364 0.522167 0.0175295 0.618833 0.101863 0.6535L 1.05686 1.04917C 1.0772 1.0575 1.09853 1.06183 1.11986 1.06183C 1.14153 1.06183 1.16253 1.0575 1.18286 1.04917C 1.2232 1.0325 1.2552 1.00017 1.2722 0.959834L 1.41153 0.6235C 1.4282 0.583167 1.4282 0.537833 1.41153 0.497166C 1.39486 0.457166 1.36286 0.424833 1.32253 0.408167ZM 1.03086 0.6815L 0.380532 0.412167L 0.393865 0.380167L 1.0442 0.6495L 1.03086 0.6815Z"/>
<path id="path33_fill" d="M 0.122243 0.675975L 1.12058 0.943642C 1.13491 0.947309 1.14924 0.948975 1.16324 0.948975C 1.23591 0.948975 1.30258 0.900309 1.32258 0.826976L 1.41691 0.475309C 1.42824 0.432976 1.42191 0.387976 1.40024 0.349976C 1.37858 0.311976 1.34258 0.284642 1.30024 0.272975L 0.301576 0.00530936C 0.259576 -0.0053573 0.214243 -2.42243e-05 0.176576 0.0219758C 0.138576 0.0439758 0.11091 0.0799755 0.0995762 0.121976L 0.00557604 0.473642C -0.0177573 0.561976 0.0342428 0.652308 0.122243 0.675975ZM 0.375576 0.366976L 1.05591 0.549309L 1.04691 0.582309L 0.36691 0.399975L 0.375576 0.366976Z"/>
<path id="path34_fill" d="M 1.30053 0.272438L 0.302198 0.00477247C 0.214198 -0.0162275 0.123867 0.033772 0.0998669 0.121439L 0.005532 0.473439C -0.00580133 0.515772 0.000533017 0.560772 0.0221997 0.598772C 0.0438663 0.636772 0.079865 0.664106 0.121865 0.675773L 1.1202 0.943439C 1.13453 0.947105 1.14887 0.948773 1.16287 0.948773C 1.23553 0.948773 1.3022 0.900106 1.3222 0.826772L 1.41653 0.474772C 1.42787 0.432439 1.42153 0.387439 1.39986 0.349439C 1.37886 0.311439 1.34253 0.284105 1.30053 0.272438ZM 1.04687 0.581772L 0.366865 0.399439L 0.375865 0.366106L 1.05587 0.548439L 1.04687 0.581772Z"/>
<path id="path35_fill" d="M 0.142951 0.689932L 1.16762 0.824933C 1.17495 0.825933 1.18195 0.826265 1.18962 0.826265C 1.27095 0.826265 1.34195 0.765932 1.35295 0.682932L 1.40062 0.321599C 1.40595 0.278265 1.39462 0.234265 1.36762 0.199598C 1.34128 0.165265 1.30162 0.142265 1.25862 0.136599L 0.233951 0.00159911C 0.145284 -0.0110676 0.0606176 0.052932 0.0489509 0.143599L 0.00128404 0.504932C -0.00404929 0.548265 0.00728403 0.592266 0.034284 0.626932C 0.060284 0.661266 0.0999508 0.683932 0.142951 0.689932ZM 0.354284 0.349932L 1.05195 0.441932L 1.04728 0.476266L 0.349617 0.384265L 0.354284 0.349932Z"/>
<path id="path36_fill" d="M 1.25838 0.136263L 0.233712 0.00126217C 0.191045 -0.00407116 0.14638 0.00759645 0.111713 0.0342631C 0.0770463 0.0609298 0.0543787 0.100263 0.048712 0.143263L 0.00137923 0.504263C -0.0102874 0.594596 0.0533775 0.677597 0.143378 0.689263L 1.16805 0.824263C 1.17505 0.825263 1.18238 0.825597 1.18971 0.825597C 1.22571 0.825597 1.26105 0.813596 1.29005 0.791596C 1.32471 0.76493 1.34738 0.725596 1.35305 0.682596L 1.40038 0.321596C 1.41205 0.23093 1.34871 0.148263 1.25838 0.136263ZM 1.04738 0.475929L 0.349379 0.38393L 0.354045 0.349929L 1.05205 0.44193L 1.04738 0.475929Z"/>
<path id="path37_fill" d="M 1.3676 0.626458C 1.39426 0.591792 1.40593 0.547792 1.4006 0.504459L 1.35293 0.143459C 1.34093 0.0527925 1.2556 -0.0105417 1.16793 0.00145829L 0.143263 0.136459C 0.100263 0.142126 0.0605961 0.165126 0.0342628 0.199459C 0.00759611 0.234126 -0.00407055 0.278126 0.00126278 0.321459L 0.0489293 0.682459C 0.0599293 0.765459 0.130596 0.825793 0.212263 0.825793C 0.219596 0.825793 0.226596 0.825459 0.234263 0.824459L 1.25893 0.689459C 1.3016 0.683793 1.34093 0.661125 1.3676 0.626458ZM 0.353929 0.476125L 0.349263 0.442126L 1.04693 0.350125L 1.0516 0.384126L 0.353929 0.476125Z"/>
<path id="path38_fill" d="M 0.00138507 0.321824L 0.0487178 0.683157C 0.0543845 0.726157 0.0770522 0.76549 0.111719 0.792157C 0.140719 0.81449 0.17605 0.826157 0.21205 0.826157C 0.21905 0.826157 0.226385 0.825824 0.233718 0.824823L 1.25838 0.689824C 1.34838 0.677824 1.41205 0.595157 1.40038 0.504824L 1.35305 0.143491C 1.34739 0.100491 1.32472 0.0611574 1.29005 0.0344907C 1.25538 0.00782409 1.21105 -0.00450892 1.16805 0.00149108L 0.143383 0.136491C 0.05305 0.148491 -0.0102816 0.231157 0.00138507 0.321824ZM 1.04739 0.350157L 1.05205 0.38449L 0.354051 0.476491L 0.349385 0.442157L 1.04739 0.350157Z"/>
<path id="path39_fill" d="M 1.40058 0.598792C 1.42258 0.560792 1.42858 0.516125 1.41724 0.473459L 1.32291 0.121459C 1.29924 0.0334588 1.20991 -0.0162073 1.12058 0.00479265L 0.122243 0.272458C 0.0342427 0.296125 -0.0177571 0.386459 0.00557622 0.474459L 0.0995761 0.826459C 0.110909 0.868793 0.138576 0.904792 0.176576 0.926459C 0.201576 0.941126 0.230243 0.948793 0.258909 0.948793C 0.272909 0.948793 0.287576 0.946792 0.301243 0.943459L 1.29991 0.675793C 1.34291 0.664126 1.37891 0.636792 1.40058 0.598792ZM 0.37591 0.582125L 0.367243 0.548793L 1.04724 0.366459L 1.05624 0.399792L 0.37591 0.582125Z"/>
<path id="path40_fill" d="M 0.0222723 0.349459C 0.000272296 0.387459 -0.00572872 0.432459 0.00560461 0.474793L 0.0999395 0.826459C 0.11994 0.899793 0.186605 0.948458 0.259272 0.948458C 0.273272 0.948458 0.287605 0.946459 0.301938 0.943125L 1.30027 0.67546C 1.34261 0.663793 1.3786 0.636459 1.39994 0.598459C 1.42194 0.560459 1.42794 0.515459 1.41661 0.473125L 1.32227 0.121459C 1.29861 0.0334587 1.20894 -0.0162074 1.11994 0.00479258L 0.121604 0.272458C 0.0796045 0.284125 0.0436056 0.311459 0.0222723 0.349459ZM 1.0466 0.366126L 1.05561 0.399125L 0.375605 0.581459L 0.366605 0.548459L 1.0466 0.366126Z"/>
<path id="path41_fill" d="M 1.41183 0.438167L 1.27283 0.101834C 1.25617 0.0615005 1.22417 0.0295 1.1835 0.0125C 1.14283 -0.00416667 1.09783 -0.00416667 1.05717 0.0125L 0.101833 0.408167C 0.0614999 0.424833 0.0295 0.457167 0.0125 0.497501C -0.00416668 0.538167 -0.00416668 0.5835 0.0125 0.623833L 0.151833 0.960167C 0.1685 1.0005 0.200834 1.0325 0.241167 1.0495C 0.2615 1.05783 0.282833 1.06217 0.304167 1.06217C 0.325833 1.06217 0.346833 1.05783 0.367166 1.0495L 1.32217 0.653833C 1.4065 0.6185 1.4465 0.5225 1.41183 0.438167ZM 0.393833 0.6815L 0.3805 0.6495L 1.03117 0.380167L 1.04417 0.412167L 0.393833 0.6815Z"/>
<path id="path42_fill" d="M 0.012535 0.623833L 0.151868 0.960166C 0.168535 1.0005 0.20087 1.0325 0.241203 1.0495C 0.261537 1.05783 0.282868 1.06217 0.304202 1.06217C 0.325868 1.06217 0.346869 1.05783 0.367203 1.0495L 1.3222 0.653833C 1.36254 0.637167 1.39453 0.604833 1.41153 0.564499C 1.4282 0.523833 1.4282 0.4785 1.41153 0.438167L 1.2722 0.101834C 1.25553 0.0615005 1.2232 0.0295 1.18287 0.0125C 1.1422 -0.00416669 1.0972 -0.00416669 1.05654 0.0125L 0.101534 0.408167C 0.0175344 0.4435 -0.0221317 0.539833 0.012535 0.623833ZM 1.03054 0.3805L 1.04387 0.4125L 0.393537 0.681833L 0.380203 0.649833L 1.03054 0.3805Z"/>
<path id="path43_fill" d="M 1.33695 0.353144L 1.11562 0.0644781C 1.05995 -0.00752191 0.956284 -0.0215231 0.884618 0.0341436L 0.0642842 0.663144C 0.0299509 0.689477 0.00695053 0.729145 0.00128387 0.772145C -0.00404947 0.815478 0.00728418 0.859478 0.0342842 0.894144L 0.255951 1.18281C 0.288617 1.22514 0.337284 1.24714 0.386617 1.24714C 0.421617 1.24714 0.457284 1.23614 0.486951 1.21314L 1.30695 0.584144C 1.37862 0.528811 1.39228 0.425477 1.33695 0.353144ZM 0.416284 0.851478L 0.395284 0.824145L 0.953951 0.39581L 0.974951 0.42281L 0.416284 0.851478Z"/>
<path id="path44_fill" d="M 0.00128465 0.772847C -0.00404868 0.816181 0.00728433 0.860181 0.0342843 0.894848L 0.255951 1.18351C 0.288618 1.22585 0.337284 1.24785 0.386617 1.24785C 0.421617 1.24785 0.457285 1.23685 0.486952 1.21385L 1.30695 0.584848C 1.37895 0.529514 1.39262 0.426181 1.33728 0.353847L 1.11595 0.0648478C 1.08962 0.0301812 1.05028 0.00718098 1.00695 0.00151431C 0.963951 -0.00448569 0.919618 0.00751398 0.884952 0.034514L 0.0646163 0.663848C 0.0299496 0.690181 0.00728465 0.729847 0.00128465 0.772847ZM 0.954618 0.396181L 0.975617 0.423514L 0.416952 0.852181L 0.395951 0.824847L 0.954618 0.396181Z"/>
<path id="path45_fill" d="M 1.31792 0.420583C 1.31792 0.376916 1.30058 0.334916 1.26958 0.303916L 1.01192 0.0462489C 0.95025 -0.0154178 0.840584 -0.0154178 0.778917 0.0462489L 0.0482497 0.777249C -0.0160836 0.841582 -0.0160836 0.945918 0.0482497 1.01025L 0.305584 1.26758C 0.337917 1.29992 0.379917 1.31592 0.42225 1.31592C 0.464584 1.31592 0.506583 1.29992 0.538916 1.26758L 1.26992 0.536916C 1.30058 0.505916 1.31792 0.464249 1.31792 0.420583ZM 0.421916 0.918251L 0.397917 0.894251L 0.895584 0.39625L 0.919917 0.420583L 0.421916 0.918251Z"/>
<path id="path46_fill" d="M -1.26139e-06 0.893583C -1.26139e-06 0.93725 0.0173335 0.97925 0.0483335 1.01025L 0.306001 1.26758C 0.338334 1.29992 0.380334 1.31592 0.422667 1.31592C 0.465001 1.31592 0.507 1.29992 0.539333 1.26758L 1.27 0.536917C 1.33433 0.472584 1.33433 0.36825 1.27 0.303916L 1.01233 0.0462502C 0.950666 -0.0154165 0.841 -0.0154165 0.779334 0.0462502L 0.0486666 0.77725C 0.0173333 0.80825 -1.26139e-06 0.849917 -1.26139e-06 0.893583ZM 0.895667 0.395584L 0.919999 0.419917L 0.422334 0.917584L 0.397999 0.893583L 0.895667 0.395584Z"/>
<path id="path47_fill" d="M 1.18277 0.256273L 0.894102 0.0346084C 0.859436 0.00794171 0.816769 -0.00472717 0.772103 0.00160616C 0.729103 0.00727283 0.689436 0.0302738 0.663103 0.0646072L 0.0341024 0.884607C -0.021231 0.95694 -0.00789713 1.06027 0.0644362 1.11561L 0.353103 1.33727C 0.382103 1.35961 0.417436 1.37127 0.453436 1.37127C 0.460436 1.37127 0.467436 1.37094 0.475102 1.36994C 0.518102 1.36427 0.55777 1.34127 0.584103 1.30694L 1.2131 0.48694C 1.26844 0.41494 1.25477 0.311606 1.18277 0.256273ZM 0.422769 0.975941L 0.395436 0.95494L 0.82377 0.396275L 0.851102 0.417273L 0.422769 0.975941Z"/>
<path id="path48_fill" d="M 0.064335 1.11582L 0.353001 1.33749C 0.382001 1.35982 0.417335 1.37149 0.453335 1.37149C 0.460335 1.37149 0.467669 1.37116 0.475002 1.37016C 0.518002 1.36449 0.557334 1.34149 0.584001 1.30716L 1.21333 0.487157C 1.26867 0.414824 1.25534 0.31149 1.183 0.256157L 0.894334 0.0344908C 0.859668 0.00782412 0.817002 -0.00450953 0.772335 0.00149047C 0.729335 0.00715714 0.690001 0.0301575 0.663334 0.0644908L 0.0340031 0.88449C -0.0213302 0.957157 -0.00766497 1.06049 0.064335 1.11582ZM 0.824335 0.396157L 0.851668 0.417158L 0.423003 0.975824L 0.395669 0.954824L 0.824335 0.396157Z"/>
<path id="path49_fill" d="M 0.960166 0.151833L 0.623833 0.0125002C 0.583167 -0.00416644 0.538166 -0.00416644 0.497499 0.0125002C 0.457166 0.0291669 0.425167 0.0614995 0.408167 0.101833L 0.0125002 1.05683C -0.00416649 1.09717 -0.00416649 1.1425 0.0125002 1.18317C 0.0291668 1.2235 0.0614994 1.2555 0.101833 1.2725L 0.438167 1.41183C 0.458834 1.4205 0.480167 1.4245 0.501167 1.4245C 0.565833 1.4245 0.627167 1.38617 0.6535 1.32283L 1.04917 0.367834C 1.06583 0.327501 1.06583 0.282166 1.04917 0.241499C 1.0325 0.200832 1.0005 0.1685 0.960166 0.151833ZM 0.412167 1.0435L 0.380167 1.03017L 0.6495 0.379833L 0.6815 0.393166L 0.412167 1.0435Z"/>
<path id="path50_fill" d="M 0.102007 1.2725L 0.438008 1.41183C 0.458342 1.42017 0.479675 1.4245 0.501008 1.4245C 0.522675 1.4245 0.543674 1.42017 0.564008 1.41183C 0.604341 1.39517 0.636342 1.36283 0.653342 1.3225L 1.04901 0.3675C 1.06567 0.327167 1.06567 0.281833 1.04901 0.241167C 1.03234 0.200833 1.00001 0.168834 0.959675 0.151834L 0.623342 0.0124998C 0.582675 -0.00416688 0.537674 -0.00416688 0.497008 0.0124998C 0.456674 0.0291665 0.424674 0.0615003 0.407674 0.101834L 0.0123415 1.05683C -0.0219918 1.14117 0.0176739 1.23783 0.102007 1.2725ZM 0.649341 0.380834L 0.681342 0.394167L 0.412007 1.0445L 0.380342 1.03117L 0.649341 0.380834Z"/>
<path id="path51_fill" d="M 0.827356 0.0990836L 0.475356 0.00508433C 0.38669 -0.0169157 0.297357 0.0344172 0.273357 0.12175L 0.00568953 1.12008C -0.0179771 1.20842 0.034357 1.29842 0.122357 1.32242L 0.474357 1.41675C 0.488357 1.42042 0.503023 1.42208 0.517023 1.42208C 0.54569 1.42208 0.574024 1.41475 0.599357 1.39975C 0.637357 1.37808 0.66469 1.34208 0.676357 1.29975L 0.944024 0.301084C 0.955357 0.258751 0.949023 0.213751 0.927356 0.176085C 0.905689 0.138085 0.86969 0.110417 0.827356 0.0990836ZM 0.401023 1.05542L 0.36769 1.04642L 0.550023 0.366418L 0.583357 0.375085L 0.401023 1.05542Z"/>
<path id="path52_fill" d="M 0.122418 1.32257L 0.474085 1.4169C 0.488085 1.42057 0.502751 1.42224 0.516751 1.42224C 0.545418 1.42224 0.573752 1.4149 0.599085 1.3999C 0.637085 1.37824 0.664418 1.34224 0.676085 1.30024L 0.943752 0.301903C 0.967418 0.21357 0.915086 0.123569 0.827086 0.0995694L 0.475419 0.00523608C 0.432752 -0.00543059 0.388084 0.000236141 0.350084 0.0219028C 0.312084 0.0435695 0.284751 0.0795694 0.273085 0.121569L 0.00541886 1.1199C -0.0175811 1.20857 0.0347515 1.2989 0.122418 1.32257ZM 0.549419 0.36657L 0.582419 0.375569L 0.400085 1.05557L 0.367085 1.04657L 0.549419 0.36657Z"/>
<path id="path53_fill" d="M 0.682453 0.0491818L 0.321453 0.00151339C 0.278453 -0.00448661 0.234119 0.00751307 0.199452 0.0345131C 0.165119 0.0608464 0.142119 0.100514 0.136453 0.143514L 0.00145308 1.16818C -0.0105469 1.25818 0.0531193 1.34151 0.143453 1.35318L 0.504453 1.40085C 0.511453 1.40185 0.518786 1.40218 0.526119 1.40218C 0.562119 1.40218 0.597453 1.39018 0.626453 1.36818C 0.660786 1.34185 0.683786 1.30218 0.689453 1.25918L 0.824452 0.234515C 0.836119 0.144182 0.772453 0.0611818 0.682453 0.0491818ZM 0.383786 1.05251L 0.349786 1.04785L 0.441786 0.350182L 0.475787 0.354848L 0.383786 1.05251Z"/>
<path id="path54_fill" d="M 0.143285 1.35265L 0.504618 1.40032C 0.511618 1.40132 0.518951 1.40165 0.526284 1.40165C 0.562284 1.40165 0.597617 1.38965 0.626617 1.36765C 0.66095 1.34132 0.683951 1.30165 0.689618 1.25865L 0.824617 0.233651C 0.829951 0.190318 0.818618 0.146318 0.791618 0.111651C 0.764951 0.0769843 0.725618 0.0543176 0.682618 0.048651L 0.321618 0.00131757C 0.231951 -0.0100158 0.148284 0.0529841 0.136618 0.143317L 0.00128376 1.16798C -0.00404957 1.21132 0.00728471 1.25532 0.0342847 1.28998C 0.060618 1.32398 0.0996179 1.34665 0.143285 1.35265ZM 0.441951 0.348984L 0.47595 0.353651L 0.383951 1.05165L 0.349951 1.04698L 0.441951 0.348984Z"/>
<path id="path55_fill" d="M 9.996 6.602L 12.5687 3.05833C 12.6163 2.99267 12.6093 2.90233 12.552 2.845C 12.4947 2.788 12.4043 2.78033 12.3387 2.82833L 8.83433 5.37233L 8.66533 5.20367L 7.86133 0.139C 7.84833 0.0590002 7.77967 2.84831e-07 7.69833 2.84831e-07C 7.617 2.84831e-07 7.54833 0.0590002 7.53533 0.139L 6.99633 3.537L 4.103 0.648C 4.05133 0.596333 3.97367 0.585333 3.91 0.618333C 3.84633 0.651333 3.81133 0.722334 3.824 0.793L 3.85933 0.994334C 3.85933 0.994334 3.85933 0.994333 3.85933 0.994667L 4.34767 3.76433L 3.05833 2.82833C 2.993 2.78033 2.90233 2.788 2.845 2.845C 2.78767 2.90233 2.78067 2.99267 2.82833 3.05833L 4.67067 5.59633L 4.88 6.783L 0.139 7.53567C 0.0589998 7.54867 -1.37329e-07 7.61733 -1.37329e-07 7.69867C -1.37329e-07 7.78 0.0589998 7.84867 0.139 7.86167L 5.212 8.667L 5.257 8.92233C 5.258 8.92867 5.26167 8.934 5.26367 8.94C 5.26633 8.949 5.26933 8.95767 5.27333 8.96633C 5.27367 8.96733 5.274 8.96833 5.27433 8.96933L 2.82833 12.3387C 2.78067 12.4043 2.78767 12.4947 2.845 12.552C 2.877 12.584 2.919 12.6003 2.96167 12.6003C 2.99533 12.6003 3.02967 12.59 3.05867 12.5687L 6.42133 10.1273L 6.778 10.4833L 7.536 15.2577C 7.549 15.3377 7.61767 15.3967 7.699 15.3967C 7.78033 15.3967 7.849 15.3377 7.862 15.2577L 8.368 12.0707L 11.1447 14.843C 11.1603 14.8587 11.179 14.871 11.1987 14.879C 11.2187 14.887 11.2397 14.8913 11.261 14.8913C 11.287 14.8913 11.313 14.8853 11.3373 14.8727C 11.401 14.8397 11.436 14.7687 11.4233 14.698L 10.8587 11.494L 12.339 12.5687C 12.368 12.59 12.402 12.6003 12.436 12.6003C 12.4783 12.6003 12.5207 12.584 12.5527 12.552C 12.61 12.4947 12.617 12.4043 12.5693 12.3387L 10.507 9.49833L 10.3557 8.63967L 15.2587 7.86133C 15.3387 7.84833 15.3977 7.77967 15.3977 7.69833C 15.3977 7.617 15.3387 7.54833 15.2587 7.53533L 10.0143 6.70267L 9.996 6.602ZM 11.692 3.705L 9.78933 6.32567L 9.07067 5.608L 11.692 3.705ZM 7.69867 1.216L 8.26867 4.80733L 7.28467 3.82467L 7.69867 1.216ZM 3.705 3.70467L 4.43 4.231L 4.54 4.85533L 3.705 3.70467ZM 1.21633 7.69833L 4.93733 7.10767L 5.15167 8.323L 1.21633 7.69833ZM 3.705 11.692L 5.505 9.21267L 6.185 9.89167L 3.705 11.692ZM 7.69867 14.1807L 7.17467 10.8797L 8.079 11.7827L 7.69867 14.1807ZM 11.692 11.692L 10.776 11.027L 10.637 10.239L 11.692 11.692ZM 10.462 11.1457C 10.462 11.1467 10.4623 11.1473 10.4623 11.1483L 11.0073 14.2413L 5.57267 8.81433L 5.51433 8.484C 5.51433 8.48333 5.514 8.48267 5.514 8.482L 4.74433 4.11433C 4.744 4.11233 4.74367 4.11033 4.74333 4.10833L 4.23967 1.25L 9.675 6.67733L 9.71033 6.87733C 9.71133 6.882 9.71167 6.88667 9.71267 6.891L 10.0013 8.52833L 10.0013 8.52867L 10.0013 8.529L 10.1893 9.595C 10.1897 9.59733 10.19 9.59967 10.1907 9.602L 10.462 11.1457ZM 14.181 7.69833L 10.298 8.31467L 10.0747 7.04667L 14.181 7.69833Z"/>
<path id="path56_fill" d="M 2.69296 0.0963336C 2.4903 0.0326669 2.28096 -2.33968e-07 2.07063 -2.33968e-07C 1.16263 -2.33968e-07 0.36963 0.582333 0.0966297 1.449C -0.0693702 1.97667 -0.0203699 2.53733 0.234963 3.02767C 0.49063 3.518 0.921964 3.87967 1.4493 4.04567C 1.65196 4.10933 1.8613 4.142 2.07163 4.142C 2.07196 4.142 2.07163 4.142 2.07196 4.142C 2.97963 4.142 3.77263 3.55967 4.04596 2.693C 4.38896 1.604 3.78196 0.439 2.69296 0.0963336ZM 3.73163 2.594C 3.50196 3.323 2.83496 3.81267 2.07163 3.81267C 1.89496 3.81267 1.71863 3.78533 1.54863 3.732C 1.10496 3.59233 0.742629 3.288 0.527629 2.87567C 0.312629 2.46333 0.270964 1.992 0.41063 1.54867C 0.640297 0.819666 1.3073 0.33 2.07063 0.33C 2.2473 0.33 2.42363 0.357334 2.59363 0.410667C 3.0373 0.550334 3.39963 0.854667 3.61463 1.267C 3.82996 1.67933 3.87096 2.15067 3.73163 2.594Z"/>
<path id="path57_fill" d="M 1.07121 0.0369045C 0.64454 -0.0980955 0.171541 0.149905 0.0382072 0.574905C -0.0984595 1.00824 0.143207 1.4719 0.57654 1.60824C 0.656873 1.63357 0.74054 1.64657 0.823873 1.64657C 0.824207 1.64657 0.824207 1.64657 0.824207 1.64657C 1.18554 1.64657 1.50087 1.41491 1.60987 1.06991C 1.67621 0.859905 1.65654 0.636904 1.55487 0.441905C 1.45254 0.246571 1.28121 0.102571 1.07121 0.0369045ZM 1.29521 0.970905C 1.21521 1.22557 0.93354 1.37557 0.67554 1.29424C 0.41554 1.21224 0.270541 0.933905 0.352208 0.674239C 0.417541 0.467239 0.606874 0.328571 0.823207 0.328571C 0.87354 0.328571 0.923207 0.336238 0.972207 0.351571C 1.09821 0.391238 1.20121 0.477571 1.26187 0.594571C 1.32321 0.711571 1.33487 0.845238 1.29521 0.970905Z"/>
</defs>
</svg>
